<svg width="262" height="72" xmlns="http://www.w3.org/2000/svg"><pattern viewBox="2.125 -70.896 69 69" patternUnits="userSpaceOnUse" height="69" width="69" y="595.275"><polygon points="71.125,-1.896 2.125,-1.896 2.125,-70.896 71.125,-70.896" fill="none"/><polygon points="71.125,-1.896 2.125,-1.896 2.125,-70.896 71.125,-70.896" fill="#F7BC60"/><g fill="#fff"><path d="M61.772-71.653c.018.072.007.127-.026.19l-.165.128c-.05.062-.099.276-.079.362-.169.058-.01.227-.015.35l-.045.161c-.01.119.017.266.068.37.097.198.268.413.435.544.19.148.365.572.608.631.177.042.384-.104.543-.143.18-.043.397.01.571-.053.222-.079.127-.337.288-.45.104-.074.287-.01.406-.051.2-.069.339-.263.376-.46l.039-.221c.039-.103.111-.16.09-.293l-.064-.187v-.337c-.003-.2.017-.379-.078-.55-.38-.688-1.236-.929-1.975-.789-.18.034-.287.126-.442.207-.17.088-.139.166-.318.224-.081.026-.216.124-.215.224l.012.169-.03-.025"/><path d="M54.105-71.653c.018.072.007.127-.026.19l-.165.128c-.05.062-.099.276-.079.362-.169.058-.01.227-.015.35l-.045.161c-.01.119.017.266.068.37.097.198.268.413.435.544.19.148.365.572.608.631.177.042.384-.104.543-.143.18-.043.397.01.571-.053.222-.079.127-.337.288-.45.104-.074.287-.01.406-.051.2-.069.339-.263.376-.46l.039-.221c.039-.103.111-.16.09-.293l-.064-.187v-.337c-.003-.2.017-.379-.078-.55-.38-.688-1.236-.929-1.975-.789-.18.034-.287.126-.442.207-.17.088-.139.166-.318.224-.081.026-.216.124-.215.224l.012.169-.03-.025"/><path d="M46.439-71.653c.018.072.007.127-.026.19l-.165.128c-.05.062-.099.276-.079.362-.169.058-.01.227-.015.35l-.045.161c-.01.119.017.266.068.37.097.198.268.413.435.544.19.148.365.572.608.631.177.042.384-.104.543-.143.18-.043.397.01.571-.053.222-.079.127-.337.288-.45.104-.074.287-.01.406-.051.2-.069.339-.263.376-.46l.039-.221c.039-.103.111-.16.09-.293l-.064-.187v-.337c-.003-.2.017-.379-.078-.55-.38-.688-1.236-.929-1.975-.789-.18.034-.287.126-.442.207-.17.088-.139.166-.318.224-.081.026-.216.124-.215.224l.012.169-.03-.025"/><path d="M38.772-71.653c.018.072.007.127-.026.19l-.165.128c-.05.062-.099.276-.079.362-.169.058-.01.227-.015.35l-.045.161c-.01.119.017.266.068.37.097.198.268.413.435.544.19.148.365.572.608.631.177.042.384-.104.543-.143.18-.043.397.01.571-.053.222-.079.127-.337.288-.45.104-.074.287-.01.406-.051.2-.069.339-.263.376-.46l.039-.221c.039-.103.111-.16.09-.293l-.064-.187v-.337c-.003-.2.017-.379-.078-.55-.38-.688-1.236-.929-1.975-.789-.18.034-.287.126-.442.207-.17.088-.139.166-.318.224-.081.026-.216.124-.215.224l.012.169-.03-.025"/><path d="M31.105-71.653c.018.072.007.127-.026.19l-.165.128c-.05.062-.099.276-.079.362-.169.058-.01.227-.015.35l-.045.161c-.01.119.017.266.068.37.097.198.268.413.435.544.19.148.365.572.608.631.177.042.384-.104.543-.143.18-.043.397.01.571-.053.222-.079.127-.337.288-.45.104-.074.287-.01.406-.051.2-.069.339-.263.376-.46l.039-.221c.039-.103.111-.16.09-.293l-.064-.187v-.337c-.003-.2.017-.379-.078-.55-.38-.688-1.236-.929-1.975-.789-.18.034-.287.126-.442.207-.17.088-.139.166-.318.224-.081.026-.216.124-.215.224l.012.169-.03-.025"/><path d="M23.439-71.653c.018.072.007.127-.026.19l-.165.128c-.05.062-.099.276-.079.362-.169.058-.01.227-.015.35l-.045.161c-.01.119.017.266.068.37.097.198.268.413.435.544.19.148.365.572.608.631.177.042.384-.104.543-.143.18-.043.397.01.571-.053.222-.079.127-.337.288-.45.104-.074.287-.01.406-.051.2-.069.339-.263.376-.46l.039-.221c.039-.103.111-.16.09-.293l-.064-.187v-.337c-.003-.2.017-.379-.078-.55-.38-.688-1.236-.929-1.975-.789-.18.034-.287.126-.442.207-.17.088-.139.166-.318.224-.081.026-.216.124-.215.224l.012.169-.03-.025"/><path d="M15.772-71.653c.018.072.007.127-.026.19l-.165.128c-.05.062-.099.276-.079.362-.169.058-.01.227-.015.35l-.045.161c-.01.119.017.266.068.37.097.198.268.413.435.544.19.148.365.572.608.631.177.042.384-.104.543-.143.18-.043.397.01.571-.053.222-.079.127-.337.288-.45.104-.074.287-.01.406-.051.2-.069.339-.263.376-.46l.039-.221c.039-.103.111-.16.09-.293l-.064-.187v-.337c-.003-.2.017-.379-.078-.55-.38-.688-1.236-.929-1.975-.789-.18.034-.287.126-.442.207-.17.088-.139.166-.318.224-.081.026-.216.124-.215.224l.012.169-.03-.025"/><path d="M8.105-71.653c.018.072.007.127-.026.19l-.165.128c-.05.062-.099.276-.079.362-.169.058-.01.227-.015.35l-.045.161c-.01.119.017.266.068.37.097.198.268.413.435.544.19.148.365.572.608.631.177.042.384-.104.543-.143.18-.043.397.01.571-.053.222-.079.127-.337.288-.45.104-.074.287-.01.406-.051.2-.069.339-.263.376-.46l.039-.221c.039-.103.111-.16.09-.293l-.064-.187v-.337c-.003-.2.017-.379-.078-.55-.38-.688-1.236-.929-1.975-.789-.18.034-.287.126-.442.207-.17.088-.139.166-.318.224-.081.026-.216.124-.215.224l.012.169-.03-.025"/><path d="M.439-71.653c.018.072.008.127-.026.19l-.165.128c-.051.062-.099.276-.079.362-.169.058-.01.227-.015.35l-.045.161c-.01.119.017.266.068.37.097.198.268.413.435.544.19.148.365.572.608.631.177.042.384-.104.543-.143.18-.043.397.01.571-.053.222-.079.127-.337.288-.45.104-.074.287-.01.406-.051.2-.07.339-.263.376-.46l.039-.221c.038-.103.111-.16.09-.293l-.064-.187v-.337c-.003-.2.017-.379-.078-.55-.38-.688-1.236-.929-1.975-.789-.18.034-.287.126-.442.207-.17.088-.139.166-.318.224-.081.026-.215.124-.215.224l.012.169-.03-.025"/></g><path d="M69.439-71.653c.018.072.008.127-.026.19l-.165.128c-.051.062-.099.276-.079.362-.169.058-.01.227-.015.35l-.045.161c-.01.119.017.266.068.37.097.198.268.413.435.544.19.148.365.572.608.631.177.042.384-.104.543-.143.18-.043.397.01.571-.053.222-.079.127-.337.288-.45.104-.074.287-.01.406-.051.2-.07.339-.263.376-.46l.039-.221c.038-.103.111-.16.09-.293l-.064-.187v-.337c-.003-.2.017-.379-.078-.55-.38-.688-1.236-.929-1.975-.789-.18.034-.287.126-.442.207-.17.088-.139.166-.318.224-.081.026-.215.124-.215.224l.012.169-.03-.025" fill="#fff"/><path d="M.495-71.653c.018.072.008.127-.026.19l-.165.128c-.051.062-.099.276-.079.362-.169.058-.01.227-.015.35l-.045.161c-.01.119.017.266.068.37.097.198.268.413.435.544.19.148.365.572.608.631.177.042.384-.104.543-.143.18-.043.397.01.571-.053.222-.079.127-.337.288-.45.104-.074.287-.01.406-.051.2-.07.339-.263.376-.46l.039-.221c.038-.103.111-.16.09-.293l-.064-.187v-.337c-.003-.2.017-.379-.078-.55-.38-.688-1.236-.929-1.975-.789-.18.034-.287.126-.442.207-.17.088-.139.166-.318.224-.081.026-.215.124-.215.224l.013.17-.03-.025" fill="#fff"/><g fill="#fff"><path d="M69.439-64.001c.018.072.007.127-.026.19l-.165.128c-.05.062-.099.276-.079.362-.169.058-.01.227-.015.35l-.045.161c-.01.119.017.266.068.37.097.198.268.413.435.544.19.148.365.572.608.631.177.042.384-.104.543-.143.18-.043.397.01.571-.053.222-.079.127-.337.288-.45.104-.074.287-.01.406-.051.2-.069.339-.263.376-.46l.039-.221c.039-.103.111-.16.09-.293l-.064-.187v-.337c-.003-.2.017-.379-.078-.55-.38-.688-1.236-.929-1.975-.789-.18.034-.287.126-.442.207-.17.088-.139.166-.318.224-.081.026-.216.124-.215.224l.012.169-.03-.025"/><path d="M61.778-64.001c.018.072.007.127-.026.19l-.165.128c-.05.062-.099.276-.079.362-.169.058-.009.227-.015.35l-.045.161c-.01.119.017.266.068.37.097.198.268.413.435.544.19.148.365.572.608.631.177.042.384-.104.543-.143.18-.043.397.01.571-.053.222-.079.127-.337.288-.45.104-.074.287-.01.406-.051.2-.069.339-.263.376-.46l.039-.221c.039-.103.111-.16.09-.293l-.064-.187v-.337c-.003-.2.017-.379-.078-.55-.38-.688-1.236-.929-1.975-.789-.18.034-.287.126-.442.207-.17.088-.139.166-.318.224-.081.026-.216.124-.215.224l.012.169-.03-.025"/><path d="M54.118-64.001c.018.072.007.127-.026.19l-.165.128c-.05.062-.099.276-.079.362-.169.058-.009.227-.015.35l-.045.161c-.01.119.017.266.068.37.097.198.268.413.435.544.19.148.365.572.608.631.177.042.384-.104.543-.143.18-.043.397.01.571-.053.222-.079.127-.337.288-.45.104-.074.287-.01.406-.051.2-.069.339-.263.376-.46l.039-.221c.039-.103.111-.16.09-.293l-.064-.187v-.337c-.003-.2.017-.379-.078-.55-.38-.688-1.236-.929-1.975-.789-.18.034-.287.126-.442.207-.17.088-.139.166-.318.224-.081.026-.216.124-.215.224l.012.169-.03-.025"/><path d="M46.458-64.001c.018.072.007.127-.026.19l-.165.128c-.05.062-.099.276-.079.362-.169.058-.009.227-.015.35l-.045.161c-.01.119.017.266.068.37.097.198.268.413.435.544.19.148.365.572.608.631.177.042.384-.104.543-.143.18-.043.397.01.571-.053.222-.079.127-.337.288-.45.104-.074.287-.01.406-.051.2-.069.339-.263.376-.46l.039-.221c.039-.103.111-.16.09-.293l-.064-.187v-.337c-.003-.2.017-.379-.078-.55-.38-.688-1.236-.929-1.975-.789-.18.034-.287.126-.442.207-.17.088-.139.166-.318.224-.081.026-.216.124-.215.224l.012.169-.03-.025"/><path d="M38.797-64.001c.018.072.007.127-.026.19l-.165.128c-.05.062-.099.276-.079.362-.169.058-.009.227-.015.35l-.045.161c-.01.119.017.266.068.37.097.198.268.413.435.544.19.148.365.572.608.631.177.042.384-.104.543-.143.18-.043.397.01.571-.053.222-.079.127-.337.288-.45.104-.074.287-.01.406-.051.2-.069.339-.263.376-.46l.039-.221c.039-.103.111-.16.09-.293l-.064-.187v-.337c-.003-.2.017-.379-.078-.55-.38-.688-1.236-.929-1.975-.789-.18.034-.287.126-.442.207-.17.088-.139.166-.318.224-.081.026-.216.124-.215.224l.012.169-.03-.025"/><path d="M31.137-64.001c.018.072.007.127-.026.19l-.165.128c-.05.062-.099.276-.079.362-.169.058-.009.227-.015.35l-.045.161c-.01.119.017.266.068.37.097.198.268.413.435.544.19.148.365.572.608.631.177.042.384-.104.543-.143.18-.043.397.01.571-.053.222-.079.127-.337.288-.45.104-.074.287-.01.406-.051.2-.069.339-.263.376-.46l.039-.221c.039-.103.111-.16.09-.293l-.064-.187v-.337c-.003-.2.017-.379-.078-.55-.38-.688-1.236-.929-1.975-.789-.18.034-.287.126-.442.207-.17.088-.139.166-.318.224-.081.026-.216.124-.215.224l.012.169-.03-.025"/><path d="M23.477-64.001c.018.072.007.127-.026.19l-.165.128c-.05.062-.099.276-.079.362-.169.058-.009.227-.015.35l-.045.161c-.01.119.017.266.068.37.097.198.268.413.435.544.19.148.365.572.608.631.177.042.384-.104.543-.143.18-.043.397.01.571-.053.222-.079.127-.337.288-.45.104-.074.287-.01.406-.051.2-.069.339-.263.376-.46l.039-.221c.039-.103.111-.16.09-.293l-.064-.187v-.337c-.003-.2.017-.379-.078-.55-.38-.688-1.236-.929-1.975-.789-.18.034-.287.126-.442.207-.17.088-.139.166-.318.224-.081.026-.216.124-.215.224l.012.169-.03-.025"/><path d="M15.816-64.001c.018.072.007.127-.026.19l-.165.128c-.05.062-.099.276-.079.362-.169.058-.009.227-.015.35l-.045.161c-.01.119.017.266.068.37.097.198.268.413.435.544.19.148.365.572.608.631.177.042.384-.104.543-.143.18-.043.397.01.571-.053.222-.079.127-.337.288-.45.104-.074.287-.01.406-.051.2-.069.339-.263.376-.46l.039-.221c.039-.103.111-.16.09-.293l-.064-.187v-.337c-.003-.2.017-.379-.078-.55-.38-.688-1.236-.929-1.975-.789-.18.034-.287.126-.442.207-.17.088-.139.166-.318.224-.081.026-.216.124-.215.224l.012.169-.03-.025"/><path d="M8.156-64.001c.018.072.007.127-.026.19l-.165.128c-.05.062-.099.276-.079.362-.169.058-.009.227-.015.35l-.045.161c-.01.119.017.266.068.37.097.198.268.413.435.544.19.148.365.572.608.631.177.042.384-.104.543-.143.18-.043.397.01.571-.053.222-.079.127-.337.288-.45.104-.074.287-.01.406-.051.2-.069.339-.263.376-.46l.039-.221c.039-.103.111-.16.09-.293l-.064-.187v-.337c-.003-.2.017-.379-.078-.55-.38-.688-1.236-.929-1.975-.789-.18.034-.287.126-.442.207-.17.088-.139.166-.318.224-.081.026-.216.124-.215.224l.012.169-.03-.025"/><path d="M.495-64.001c.018.072.007.127-.026.19l-.165.128c-.05.062-.099.276-.079.362-.169.058-.01.227-.015.35l-.045.161c-.01.119.017.266.068.37.097.198.268.413.435.544.19.148.365.572.608.631.177.042.384-.104.543-.143.181-.042.398.011.572-.052.222-.079.127-.337.288-.45.104-.074.287-.01.406-.051.2-.069.339-.263.376-.46l.039-.221c.039-.103.111-.16.09-.293l-.064-.187v-.337c-.003-.2.017-.379-.078-.55-.38-.688-1.236-.929-1.975-.789-.18.034-.287.126-.442.207-.17.088-.139.166-.318.224-.081.026-.216.124-.215.224l.012.169-.03-.025"/><path d="M69.439-56.348c.018.072.007.127-.026.19l-.165.128c-.05.062-.099.276-.079.362-.169.058-.01.227-.015.35l-.045.161c-.01.119.017.266.068.37.097.198.268.413.435.544.19.148.365.572.608.631.177.042.384-.104.543-.143.18-.043.397.01.571-.053.222-.079.127-.337.288-.45.104-.074.287-.01.406-.051.2-.069.339-.263.376-.46l.039-.221c.039-.103.111-.16.09-.293l-.064-.187v-.337c-.003-.2.017-.379-.078-.55-.38-.688-1.236-.929-1.975-.789-.18.034-.287.126-.442.207-.17.088-.139.166-.318.224-.081.026-.216.124-.215.224l.012.169-.03-.025"/><path d="M61.778-56.348c.018.072.007.127-.026.19l-.165.128c-.05.062-.099.276-.079.362-.169.058-.009.227-.015.35l-.045.161c-.01.119.017.266.068.37.097.198.268.413.435.544.19.148.365.572.608.631.177.042.384-.104.543-.143.18-.043.397.01.571-.053.222-.079.127-.337.288-.45.104-.074.287-.01.406-.051.2-.069.339-.263.376-.46l.039-.221c.039-.103.111-.16.09-.293l-.064-.187v-.337c-.003-.2.017-.379-.078-.55-.38-.688-1.236-.929-1.975-.789-.18.034-.287.126-.442.207-.17.088-.139.166-.318.224-.081.026-.216.124-.215.224l.012.169-.03-.025"/><path d="M54.118-56.348c.018.072.007.127-.026.19l-.165.128c-.05.062-.099.276-.079.362-.169.058-.009.227-.015.35l-.045.161c-.01.119.017.266.068.37.097.198.268.413.435.544.19.148.365.572.608.631.177.042.384-.104.543-.143.18-.043.397.01.571-.053.222-.079.127-.337.288-.45.104-.074.287-.01.406-.051.2-.069.339-.263.376-.46l.039-.221c.039-.103.111-.16.09-.293l-.064-.187v-.337c-.003-.2.017-.379-.078-.55-.38-.688-1.236-.929-1.975-.789-.18.034-.287.126-.442.207-.17.088-.139.166-.318.224-.081.026-.216.124-.215.224l.012.169-.03-.025"/><path d="M46.458-56.348c.018.072.007.127-.026.19l-.165.128c-.05.062-.099.276-.079.362-.169.058-.009.227-.015.35l-.045.161c-.01.119.017.266.068.37.097.198.268.413.435.544.19.148.365.572.608.631.177.042.384-.104.543-.143.18-.043.397.01.571-.053.222-.079.127-.337.288-.45.104-.074.287-.01.406-.051.2-.069.339-.263.376-.46l.039-.221c.039-.103.111-.16.09-.293l-.064-.187v-.337c-.003-.2.017-.379-.078-.55-.38-.688-1.236-.929-1.975-.789-.18.034-.287.126-.442.207-.17.088-.139.166-.318.224-.081.026-.216.124-.215.224l.012.169-.03-.025"/><path d="M38.797-56.348c.018.072.007.127-.026.19l-.165.128c-.05.062-.099.276-.079.362-.169.058-.009.227-.015.35l-.045.161c-.01.119.017.266.068.37.097.198.268.413.435.544.19.148.365.572.608.631.177.042.384-.104.543-.143.18-.043.397.01.571-.053.222-.079.127-.337.288-.45.104-.074.287-.01.406-.051.2-.069.339-.263.376-.46l.039-.221c.039-.103.111-.16.09-.293l-.064-.187v-.337c-.003-.2.017-.379-.078-.55-.38-.688-1.236-.929-1.975-.789-.18.034-.287.126-.442.207-.17.088-.139.166-.318.224-.081.026-.216.124-.215.224l.012.169-.03-.025"/><path d="M31.137-56.348c.018.072.007.127-.026.19l-.165.128c-.05.062-.099.276-.079.362-.169.058-.009.227-.015.35l-.045.161c-.01.119.017.266.068.37.097.198.268.413.435.544.19.148.365.572.608.631.177.042.384-.104.543-.143.18-.043.397.01.571-.053.222-.079.127-.337.288-.45.104-.074.287-.01.406-.051.2-.069.339-.263.376-.46l.039-.221c.039-.103.111-.16.09-.293l-.064-.187v-.337c-.003-.2.017-.379-.078-.55-.38-.688-1.236-.929-1.975-.789-.18.034-.287.126-.442.207-.17.088-.139.166-.318.224-.081.026-.216.124-.215.224l.012.169-.03-.025"/><path d="M23.477-56.348c.018.072.007.127-.026.19l-.165.128c-.05.062-.099.276-.079.362-.169.058-.009.227-.015.35l-.045.161c-.01.119.017.266.068.37.097.198.268.413.435.544.19.148.365.572.608.631.177.042.384-.104.543-.143.18-.043.397.01.571-.053.222-.079.127-.337.288-.45.104-.074.287-.01.406-.051.2-.069.339-.263.376-.46l.039-.221c.039-.103.111-.16.09-.293l-.064-.187v-.337c-.003-.2.017-.379-.078-.55-.38-.688-1.236-.929-1.975-.789-.18.034-.287.126-.442.207-.17.088-.139.166-.318.224-.081.026-.216.124-.215.224l.012.169-.03-.025"/><path d="M15.816-56.348c.018.072.007.127-.026.19l-.165.128c-.05.062-.099.276-.079.362-.169.058-.009.227-.015.35l-.045.161c-.01.119.017.266.068.37.097.198.268.413.435.544.19.148.365.572.608.631.177.042.384-.104.543-.143.18-.043.397.01.571-.053.222-.079.127-.337.288-.45.104-.074.287-.01.406-.051.2-.069.339-.263.376-.46l.039-.221c.039-.103.111-.16.09-.293l-.064-.187v-.337c-.003-.2.017-.379-.078-.55-.38-.688-1.236-.929-1.975-.789-.18.034-.287.126-.442.207-.17.088-.139.166-.318.224-.081.026-.216.124-.215.224l.012.169-.03-.025"/><path d="M8.156-56.348c.018.072.007.127-.026.19l-.165.128c-.05.062-.099.276-.079.362-.169.058-.009.227-.015.35l-.045.161c-.01.119.017.266.068.37.097.198.268.413.435.544.19.148.365.572.608.631.177.042.384-.104.543-.143.18-.043.397.01.571-.053.222-.079.127-.337.288-.45.104-.074.287-.01.406-.051.2-.069.339-.263.376-.46l.039-.221c.039-.103.111-.16.09-.293l-.064-.187v-.337c-.003-.2.017-.379-.078-.55-.38-.688-1.236-.929-1.975-.789-.18.034-.287.126-.442.207-.17.088-.139.166-.318.224-.081.026-.216.124-.215.224l.012.169-.03-.025"/><path d="M.495-56.348c.018.072.007.127-.026.19l-.165.128c-.05.062-.099.276-.079.362-.169.058-.01.227-.015.35l-.045.161c-.01.119.017.266.068.37.097.198.268.413.435.544.19.148.365.572.608.631.177.042.384-.104.543-.143.18-.043.397.01.571-.053.222-.079.127-.337.288-.45.104-.074.287-.01.406-.051.2-.069.339-.263.376-.46l.039-.221c.039-.103.111-.16.09-.293l-.064-.187v-.337c-.003-.2.017-.379-.078-.55-.38-.688-1.236-.929-1.975-.789-.18.034-.287.126-.442.207-.17.088-.139.166-.318.224-.081.026-.216.124-.215.224l.013.171-.03-.025"/><path d="M69.439-48.695c.018.072.007.127-.026.19l-.165.128c-.05.062-.099.276-.079.362-.169.058-.01.227-.015.35l-.045.161c-.01.119.017.266.068.37.097.198.268.413.435.544.19.148.365.572.608.631.177.042.384-.104.543-.143.18-.043.397.01.571-.053.222-.079.127-.337.288-.45.104-.074.287-.01.406-.051.2-.069.339-.263.376-.46l.039-.221c.039-.103.111-.16.09-.293l-.064-.187v-.337c-.003-.2.017-.379-.078-.55-.38-.688-1.236-.929-1.975-.789-.18.034-.287.126-.442.207-.17.088-.139.166-.318.224-.081.026-.216.124-.215.224l.012.169-.03-.025"/><path d="M61.778-48.695c.018.072.007.127-.026.19l-.165.128c-.05.062-.099.276-.079.362-.169.058-.009.227-.015.35l-.045.161c-.01.119.017.266.068.37.097.198.268.413.435.544.19.148.365.572.608.631.177.042.384-.104.543-.143.18-.043.397.01.571-.053.222-.079.127-.337.288-.45.104-.074.287-.01.406-.051.2-.069.339-.263.376-.46l.039-.221c.039-.103.111-.16.09-.293l-.064-.187v-.337c-.003-.2.017-.379-.078-.55-.38-.688-1.236-.929-1.975-.789-.18.034-.287.126-.442.207-.17.088-.139.166-.318.224-.081.026-.216.124-.215.224l.012.169-.03-.025"/><path d="M54.118-48.695c.018.072.007.127-.026.19l-.165.128c-.05.062-.099.276-.079.362-.169.058-.009.227-.015.35l-.045.161c-.01.119.017.266.068.37.097.198.268.413.435.544.19.148.365.572.608.631.177.042.384-.104.543-.143.18-.043.397.01.571-.053.222-.079.127-.337.288-.45.104-.074.287-.01.406-.051.2-.069.339-.263.376-.46l.039-.221c.039-.103.111-.16.09-.293l-.064-.187v-.337c-.003-.2.017-.379-.078-.55-.38-.688-1.236-.929-1.975-.789-.18.034-.287.126-.442.207-.17.088-.139.166-.318.224-.081.026-.216.124-.215.224l.012.169-.03-.025"/><path d="M46.458-48.695c.018.072.007.127-.026.19l-.165.128c-.05.062-.099.276-.079.362-.169.058-.009.227-.015.35l-.045.161c-.01.119.017.266.068.37.097.198.268.413.435.544.19.148.365.572.608.631.177.042.384-.104.543-.143.18-.043.397.01.571-.053.222-.079.127-.337.288-.45.104-.074.287-.01.406-.051.2-.069.339-.263.376-.46l.039-.221c.039-.103.111-.16.09-.293l-.064-.187v-.337c-.003-.2.017-.379-.078-.55-.38-.688-1.236-.929-1.975-.789-.18.034-.287.126-.442.207-.17.088-.139.166-.318.224-.081.026-.216.124-.215.224l.012.169-.03-.025"/><path d="M38.797-48.695c.018.072.007.127-.026.19l-.165.128c-.05.062-.099.276-.079.362-.169.058-.009.227-.015.35l-.045.161c-.01.119.017.266.068.37.097.198.268.413.435.544.19.148.365.572.608.631.177.042.384-.104.543-.143.18-.043.397.01.571-.053.222-.079.127-.337.288-.45.104-.074.287-.01.406-.051.2-.069.339-.263.376-.46l.039-.221c.039-.103.111-.16.09-.293l-.064-.187v-.337c-.003-.2.017-.379-.078-.55-.38-.688-1.236-.929-1.975-.789-.18.034-.287.126-.442.207-.17.088-.139.166-.318.224-.081.026-.216.124-.215.224l.012.169-.03-.025"/><path d="M31.137-48.695c.018.072.007.127-.026.19l-.165.128c-.05.062-.099.276-.079.362-.169.058-.009.227-.015.35l-.045.161c-.01.119.017.266.068.37.097.198.268.413.435.544.19.148.365.572.608.631.177.042.384-.104.543-.143.18-.043.397.01.571-.053.222-.079.127-.337.288-.45.104-.074.287-.01.406-.051.2-.069.339-.263.376-.46l.039-.221c.039-.103.111-.16.09-.293l-.064-.187v-.337c-.003-.2.017-.379-.078-.55-.38-.688-1.236-.929-1.975-.789-.18.034-.287.126-.442.207-.17.088-.139.166-.318.224-.081.026-.216.124-.215.224l.012.169-.03-.025"/><path d="M23.477-48.695c.018.072.007.127-.026.19l-.165.128c-.05.062-.099.276-.079.362-.169.058-.009.227-.015.35l-.045.161c-.01.119.017.266.068.37.097.198.268.413.435.544.19.148.365.572.608.631.177.042.384-.104.543-.143.18-.043.397.01.571-.053.222-.079.127-.337.288-.45.104-.074.287-.01.406-.051.2-.069.339-.263.376-.46l.039-.221c.039-.103.111-.16.09-.293l-.064-.187v-.337c-.003-.2.017-.379-.078-.55-.38-.688-1.236-.929-1.975-.789-.18.034-.287.126-.442.207-.17.088-.139.166-.318.224-.081.026-.216.124-.215.224l.012.169-.03-.025"/><path d="M15.816-48.695c.018.072.007.127-.026.19l-.165.128c-.05.062-.099.276-.079.362-.169.058-.009.227-.015.35l-.045.161c-.01.119.017.266.068.37.097.198.268.413.435.544.19.148.365.572.608.631.177.042.384-.104.543-.143.18-.043.397.01.571-.053.222-.079.127-.337.288-.45.104-.074.287-.01.406-.051.2-.069.339-.263.376-.46l.039-.221c.039-.103.111-.16.09-.293l-.064-.187v-.337c-.003-.2.017-.379-.078-.55-.38-.688-1.236-.929-1.975-.789-.18.034-.287.126-.442.207-.17.088-.139.166-.318.224-.081.026-.216.124-.215.224l.012.169-.03-.025"/><path d="M8.156-48.695c.018.072.007.127-.026.19l-.165.128c-.05.062-.099.276-.079.362-.169.058-.009.227-.015.35l-.045.161c-.01.119.017.266.068.37.097.198.268.413.435.544.19.148.365.572.608.631.177.042.384-.104.543-.143.18-.043.397.01.571-.053.222-.079.127-.337.288-.45.104-.074.287-.01.406-.051.2-.069.339-.263.376-.46l.039-.221c.039-.103.111-.16.09-.293l-.064-.187v-.337c-.003-.2.017-.379-.078-.55-.38-.688-1.236-.929-1.975-.789-.18.034-.287.126-.442.207-.17.088-.139.166-.318.224-.081.026-.216.124-.215.224l.012.169-.03-.025"/><path d="M.495-48.695c.018.072.007.127-.026.19l-.165.128c-.05.062-.099.276-.079.362-.169.058-.01.227-.015.35l-.045.161c-.01.119.017.266.068.37.097.198.268.413.435.544.19.148.365.572.608.631.177.042.384-.104.543-.143.18-.043.397.01.571-.053.222-.079.127-.337.288-.45.104-.074.287-.01.406-.051.2-.069.339-.263.376-.46l.039-.221c.039-.103.111-.16.09-.293l-.064-.187v-.337c-.003-.2.017-.379-.078-.55-.38-.688-1.236-.929-1.975-.789-.18.034-.287.126-.442.207-.17.088-.139.166-.318.224-.081.026-.216.124-.215.224l.012.169-.03-.025"/><path d="M69.439-41.042c.018.072.007.127-.026.19l-.165.128c-.05.062-.099.276-.079.362-.169.058-.01.227-.015.35l-.045.161c-.01.119.017.266.068.37.097.198.268.413.435.544.19.148.365.572.608.631.177.042.384-.104.543-.143.18-.043.397.01.571-.053.222-.079.127-.337.288-.45.104-.074.287-.01.406-.051.2-.069.339-.263.376-.46l.039-.221c.039-.103.111-.16.09-.293l-.064-.187v-.337c-.003-.2.017-.379-.078-.55-.38-.688-1.236-.929-1.975-.789-.18.034-.287.126-.442.207-.17.088-.139.166-.318.224-.081.026-.216.124-.215.224l.012.169-.03-.025"/><path d="M61.778-41.042c.018.072.007.127-.026.19l-.165.128c-.05.062-.099.276-.079.362-.169.058-.009.227-.015.35l-.045.161c-.01.119.017.266.068.37.097.198.268.413.435.544.19.148.365.572.608.631.177.042.384-.104.543-.143.18-.043.397.01.571-.053.222-.079.127-.337.288-.45.104-.074.287-.01.406-.051.2-.069.339-.263.376-.46l.039-.221c.039-.103.111-.16.09-.293l-.064-.187v-.337c-.003-.2.017-.379-.078-.55-.38-.688-1.236-.929-1.975-.789-.18.034-.287.126-.442.207-.17.088-.139.166-.318.224-.081.026-.216.124-.215.224l.012.169-.03-.025"/><path d="M54.118-41.042c.018.072.007.127-.026.19l-.165.128c-.05.062-.099.276-.079.362-.169.058-.009.227-.015.35l-.045.161c-.01.119.017.266.068.37.097.198.268.413.435.544.19.148.365.572.608.631.177.042.384-.104.543-.143.18-.043.397.01.571-.053.222-.079.127-.337.288-.45.104-.074.287-.01.406-.051.2-.069.339-.263.376-.46l.039-.221c.039-.103.111-.16.09-.293l-.064-.187v-.337c-.003-.2.017-.379-.078-.55-.38-.688-1.236-.929-1.975-.789-.18.034-.287.126-.442.207-.17.088-.139.166-.318.224-.081.026-.216.124-.215.224l.012.169-.03-.025"/><path d="M46.458-41.042c.018.072.007.127-.026.19l-.165.128c-.05.062-.099.276-.079.362-.169.058-.009.227-.015.35l-.045.161c-.01.119.017.266.068.37.097.198.268.413.435.544.19.148.365.572.608.631.177.042.384-.104.543-.143.18-.043.397.01.571-.053.222-.079.127-.337.288-.45.104-.074.287-.01.406-.051.2-.069.339-.263.376-.46l.039-.221c.039-.103.111-.16.09-.293l-.064-.187v-.337c-.003-.2.017-.379-.078-.55-.38-.688-1.236-.929-1.975-.789-.18.034-.287.126-.442.207-.17.088-.139.166-.318.224-.081.026-.216.124-.215.224l.012.169-.03-.025"/><path d="M38.797-41.042c.018.072.007.127-.026.19l-.165.128c-.05.062-.099.276-.079.362-.169.058-.009.227-.015.35l-.045.161c-.01.119.017.266.068.37.097.198.268.413.435.544.19.148.365.572.608.631.177.042.384-.104.543-.143.18-.043.397.01.571-.053.222-.079.127-.337.288-.45.104-.074.287-.01.406-.051.2-.069.339-.263.376-.46l.039-.221c.039-.103.111-.16.09-.293l-.064-.187v-.337c-.003-.2.017-.379-.078-.55-.38-.688-1.236-.929-1.975-.789-.18.034-.287.126-.442.207-.17.088-.139.166-.318.224-.081.026-.216.124-.215.224l.012.169-.03-.025"/><path d="M31.137-41.042c.018.072.007.127-.026.19l-.165.128c-.05.062-.099.276-.079.362-.169.058-.009.227-.015.35l-.045.161c-.01.119.017.266.068.37.097.198.268.413.435.544.19.148.365.572.608.631.177.042.384-.104.543-.143.18-.043.397.01.571-.053.222-.079.127-.337.288-.45.104-.074.287-.01.406-.051.2-.069.339-.263.376-.46l.039-.221c.039-.103.111-.16.09-.293l-.064-.187v-.337c-.003-.2.017-.379-.078-.55-.38-.688-1.236-.929-1.975-.789-.18.034-.287.126-.442.207-.17.088-.139.166-.318.224-.081.026-.216.124-.215.224l.012.169-.03-.025"/><path d="M23.477-41.042c.018.072.007.127-.026.19l-.165.128c-.05.062-.099.276-.079.362-.169.058-.009.227-.015.35l-.045.161c-.01.119.017.266.068.37.097.198.268.413.435.544.19.148.365.572.608.631.177.042.384-.104.543-.143.18-.043.397.01.571-.053.222-.079.127-.337.288-.45.104-.074.287-.01.406-.051.2-.069.339-.263.376-.46l.039-.221c.039-.103.111-.16.09-.293l-.064-.187v-.337c-.003-.2.017-.379-.078-.55-.38-.688-1.236-.929-1.975-.789-.18.034-.287.126-.442.207-.17.088-.139.166-.318.224-.081.026-.216.124-.215.224l.012.169-.03-.025"/><path d="M15.816-41.042c.018.072.007.127-.026.19l-.165.128c-.05.062-.099.276-.079.362-.169.058-.009.227-.015.35l-.045.161c-.01.119.017.266.068.37.097.198.268.413.435.544.19.148.365.572.608.631.177.042.384-.104.543-.143.18-.043.397.01.571-.053.222-.079.127-.337.288-.45.104-.074.287-.01.406-.051.2-.069.339-.263.376-.46l.039-.221c.039-.103.111-.16.09-.293l-.064-.187v-.337c-.003-.2.017-.379-.078-.55-.38-.688-1.236-.929-1.975-.789-.18.034-.287.126-.442.207-.17.088-.139.166-.318.224-.081.026-.216.124-.215.224l.012.169-.03-.025"/><path d="M8.156-41.042c.018.072.007.127-.026.19l-.165.128c-.05.062-.099.276-.079.362-.169.058-.009.227-.015.35l-.045.161c-.01.119.017.266.068.37.097.198.268.413.435.544.19.148.365.572.608.631.177.042.384-.104.543-.143.18-.043.397.01.571-.053.222-.079.127-.337.288-.45.104-.074.287-.01.406-.051.2-.069.339-.263.376-.46l.039-.221c.039-.103.111-.16.09-.293l-.064-.187v-.337c-.003-.2.017-.379-.078-.55-.38-.688-1.236-.929-1.975-.789-.18.034-.287.126-.442.207-.17.088-.139.166-.318.224-.081.026-.216.124-.215.224l.012.169-.03-.024"/><path d="M.495-41.042c.018.072.007.127-.026.19l-.165.128c-.05.062-.099.276-.079.362-.169.058-.01.227-.015.35l-.045.161c-.01.119.017.266.068.37.097.198.268.413.435.544.19.148.365.572.608.631.177.042.384-.104.543-.143.18-.043.397.01.571-.053.222-.079.127-.337.288-.45.104-.074.287-.01.406-.051.2-.069.339-.263.376-.46l.039-.221c.039-.103.111-.16.09-.293l-.064-.187v-.337c-.003-.2.017-.379-.078-.55-.38-.688-1.236-.929-1.975-.789-.18.034-.287.126-.442.207-.17.088-.139.166-.318.224-.081.026-.216.124-.215.224l.012.169-.03-.025"/><path d="M69.439-33.39c.018.072.007.127-.026.19l-.165.128c-.05.062-.099.276-.079.362-.169.058-.01.227-.015.35l-.045.161c-.01.119.017.266.068.37.097.198.268.413.435.544.19.148.365.572.608.631.177.042.384-.104.543-.143.18-.043.397.01.571-.053.222-.079.127-.337.288-.45.104-.074.287-.01.406-.051.2-.069.339-.263.376-.46l.039-.221c.039-.103.111-.16.09-.293l-.064-.187v-.337c-.003-.2.017-.379-.078-.55-.38-.688-1.236-.929-1.975-.789-.18.034-.287.126-.442.207-.17.088-.139.166-.318.224-.081.026-.216.124-.215.224l.012.169-.03-.025"/><path d="M61.778-33.39c.018.072.007.127-.026.19l-.165.128c-.05.062-.099.276-.079.362-.169.058-.009.227-.015.35l-.045.161c-.01.119.017.266.068.37.097.198.268.413.435.544.19.148.365.572.608.631.177.042.384-.104.543-.143.18-.043.397.01.571-.053.222-.079.127-.337.288-.45.104-.074.287-.01.406-.051.2-.069.339-.263.376-.46l.039-.221c.039-.103.111-.16.09-.293l-.064-.187v-.337c-.003-.2.017-.379-.078-.55-.38-.688-1.236-.929-1.975-.789-.18.034-.287.126-.442.207-.17.088-.139.166-.318.224-.081.026-.216.124-.215.224l.012.169-.03-.025"/><path d="M54.118-33.39c.018.072.007.127-.026.19l-.165.128c-.05.062-.099.276-.079.362-.169.058-.009.227-.015.35l-.045.161c-.01.119.017.266.068.37.097.198.268.413.435.544.19.148.365.572.608.631.177.042.384-.104.543-.143.18-.043.397.01.571-.053.222-.079.127-.337.288-.45.104-.074.287-.01.406-.051.2-.069.339-.263.376-.46l.039-.221c.039-.103.111-.16.09-.293l-.064-.187v-.337c-.003-.2.017-.379-.078-.55-.38-.688-1.236-.929-1.975-.789-.18.034-.287.126-.442.207-.17.088-.139.166-.318.224-.081.026-.216.124-.215.224l.012.169-.03-.025"/><path d="M46.458-33.39c.018.072.007.127-.026.19l-.165.128c-.05.062-.099.276-.079.362-.169.058-.009.227-.015.35l-.045.161c-.01.119.017.266.068.37.097.198.268.413.435.544.19.148.365.572.608.631.177.042.384-.104.543-.143.18-.043.397.01.571-.053.222-.079.127-.337.288-.45.104-.074.287-.01.406-.051.2-.069.339-.263.376-.46l.039-.221c.039-.103.111-.16.09-.293l-.064-.187v-.337c-.003-.2.017-.379-.078-.55-.38-.688-1.236-.929-1.975-.789-.18.034-.287.126-.442.207-.17.088-.139.166-.318.224-.081.026-.216.124-.215.224l.012.169-.03-.025"/><path d="M38.797-33.39c.018.072.007.127-.026.19l-.165.128c-.05.062-.099.276-.079.362-.169.058-.009.227-.015.35l-.045.161c-.01.119.017.266.068.37.097.198.268.413.435.544.19.148.365.572.608.631.177.042.384-.104.543-.143.18-.043.397.01.571-.053.222-.079.127-.337.288-.45.104-.074.287-.01.406-.051.2-.069.339-.263.376-.46l.039-.221c.039-.103.111-.16.09-.293l-.064-.187v-.337c-.003-.2.017-.379-.078-.55-.38-.688-1.236-.929-1.975-.789-.18.034-.287.126-.442.207-.17.088-.139.166-.318.224-.081.026-.216.124-.215.224l.012.169-.03-.025"/><path d="M31.137-33.39c.018.072.007.127-.026.19l-.165.128c-.05.062-.099.276-.079.362-.169.058-.009.227-.015.35l-.045.161c-.01.119.017.266.068.37.097.198.268.413.435.544.19.148.365.572.608.631.177.042.384-.104.543-.143.18-.043.397.01.571-.053.222-.079.127-.337.288-.45.104-.074.287-.01.406-.051.2-.069.339-.263.376-.46l.039-.221c.039-.103.111-.16.09-.293l-.064-.187v-.337c-.003-.2.017-.379-.078-.55-.38-.688-1.236-.929-1.975-.789-.18.034-.287.126-.442.207-.17.088-.139.166-.318.224-.081.026-.216.124-.215.224l.012.169-.03-.025"/><path d="M23.477-33.39c.018.072.007.127-.026.19l-.165.128c-.05.062-.099.276-.079.362-.169.058-.009.227-.015.35l-.045.161c-.01.119.017.266.068.37.097.198.268.413.435.544.19.148.365.572.608.631.177.042.384-.104.543-.143.18-.043.397.01.571-.053.222-.079.127-.337.288-.45.104-.074.287-.01.406-.051.2-.069.339-.263.376-.46l.039-.221c.039-.103.111-.16.09-.293l-.064-.187v-.337c-.003-.2.017-.379-.078-.55-.38-.688-1.236-.929-1.975-.789-.18.034-.287.126-.442.207-.17.088-.139.166-.318.224-.081.026-.216.124-.215.224l.012.169-.03-.025"/><path d="M15.816-33.39c.018.072.007.127-.026.19l-.165.128c-.05.062-.099.276-.079.362-.169.058-.009.227-.015.35l-.045.161c-.01.119.017.266.068.37.097.198.268.413.435.544.19.148.365.572.608.631.177.042.384-.104.543-.143.18-.043.397.01.571-.053.222-.079.127-.337.288-.45.104-.074.287-.01.406-.051.2-.069.339-.263.376-.46l.039-.221c.039-.103.111-.16.09-.293l-.064-.187v-.337c-.003-.2.017-.379-.078-.55-.38-.688-1.236-.929-1.975-.789-.18.034-.287.126-.442.207-.17.088-.139.166-.318.224-.081.026-.216.124-.215.224l.012.169-.03-.025"/><path d="M8.156-33.39c.018.072.007.127-.026.19l-.165.128c-.05.062-.099.276-.079.362-.169.058-.009.227-.015.35l-.045.161c-.01.119.017.266.068.37.097.198.268.413.435.544.19.148.365.572.608.631.177.042.384-.104.543-.143.18-.043.397.01.571-.053.222-.079.127-.337.288-.45.104-.074.287-.01.406-.051.2-.069.339-.263.376-.46l.039-.221c.039-.103.111-.16.09-.293l-.064-.187v-.337c-.003-.2.017-.379-.078-.55-.38-.688-1.236-.929-1.975-.789-.18.034-.287.126-.442.207-.17.088-.139.166-.318.224-.081.026-.216.124-.215.224l.012.169-.03-.025"/><path d="M.495-33.39c.018.072.007.127-.026.19l-.165.128c-.05.062-.099.276-.079.362-.169.058-.01.227-.015.35l-.045.161c-.01.119.017.266.068.37.097.198.268.413.435.544.19.148.365.572.608.631.177.042.384-.104.543-.143.18-.043.397.01.571-.053.222-.079.127-.337.288-.45.104-.074.287-.01.406-.051.2-.069.339-.263.376-.46l.039-.221c.039-.103.111-.16.09-.293l-.064-.187v-.337c-.003-.2.017-.379-.078-.55-.38-.688-1.236-.929-1.975-.789-.18.034-.287.126-.442.207-.17.088-.139.166-.318.224-.081.026-.216.124-.215.224l.013.171-.03-.025"/><path d="M69.439-25.736c.018.072.007.127-.026.19l-.165.128c-.05.062-.099.276-.079.362-.169.058-.01.227-.015.35l-.045.161c-.01.119.017.266.068.37.097.198.268.413.435.544.19.148.365.572.608.631.177.042.384-.104.543-.143.18-.043.397.01.571-.053.222-.079.127-.337.288-.45.104-.074.287-.01.406-.051.2-.069.339-.263.376-.46l.039-.221c.039-.103.111-.16.09-.293l-.064-.187v-.337c-.003-.2.017-.379-.078-.55-.38-.688-1.236-.929-1.975-.789-.18.034-.287.126-.442.207-.17.088-.139.166-.318.224-.081.026-.216.124-.215.224l.012.169-.03-.025"/><path d="M61.778-25.736c.018.072.007.127-.026.19l-.165.128c-.05.062-.099.276-.079.362-.169.058-.009.227-.015.35l-.045.161c-.01.119.017.266.068.37.097.198.268.413.435.544.19.148.365.572.608.631.177.042.384-.104.543-.143.18-.043.397.01.571-.053.222-.079.127-.337.288-.45.104-.074.287-.01.406-.051.2-.069.339-.263.376-.46l.039-.221c.039-.103.111-.16.09-.293l-.064-.187v-.337c-.003-.2.017-.379-.078-.55-.38-.688-1.236-.929-1.975-.789-.18.034-.287.126-.442.207-.17.088-.139.166-.318.224-.081.026-.216.124-.215.224l.012.169-.03-.025"/><path d="M54.118-25.736c.018.072.007.127-.026.19l-.165.128c-.05.062-.099.276-.079.362-.169.058-.009.227-.015.35l-.045.161c-.01.119.017.266.068.37.097.198.268.413.435.544.19.148.365.572.608.631.177.042.384-.104.543-.143.18-.043.397.01.571-.053.222-.079.127-.337.288-.45.104-.074.287-.01.406-.051.2-.069.339-.263.376-.46l.039-.221c.039-.103.111-.16.09-.293l-.064-.187v-.337c-.003-.2.017-.379-.078-.55-.38-.688-1.236-.929-1.975-.789-.18.034-.287.126-.442.207-.17.088-.139.166-.318.224-.081.026-.216.124-.215.224l.012.169-.03-.025"/><path d="M46.458-25.736c.018.072.007.127-.026.19l-.165.128c-.05.062-.099.276-.079.362-.169.058-.009.227-.015.35l-.045.161c-.01.119.017.266.068.37.097.198.268.413.435.544.19.148.365.572.608.631.177.042.384-.104.543-.143.18-.043.397.01.571-.053.222-.079.127-.337.288-.45.104-.074.287-.01.406-.051.2-.069.339-.263.376-.46l.039-.221c.039-.103.111-.16.09-.293l-.064-.187v-.337c-.003-.2.017-.379-.078-.55-.38-.688-1.236-.929-1.975-.789-.18.034-.287.126-.442.207-.17.088-.139.166-.318.224-.081.026-.216.124-.215.224l.012.169-.03-.025"/><path d="M38.797-25.736c.018.072.007.127-.026.19l-.165.128c-.05.062-.099.276-.079.362-.169.058-.009.227-.015.35l-.045.161c-.01.119.017.266.068.37.097.198.268.413.435.544.19.148.365.572.608.631.177.042.384-.104.543-.143.18-.043.397.01.571-.053.222-.079.127-.337.288-.45.104-.074.287-.01.406-.051.2-.069.339-.263.376-.46l.039-.221c.039-.103.111-.16.09-.293l-.064-.187v-.337c-.003-.2.017-.379-.078-.55-.38-.688-1.236-.929-1.975-.789-.18.034-.287.126-.442.207-.17.088-.139.166-.318.224-.081.026-.216.124-.215.224l.012.169-.03-.025"/><path d="M31.137-25.736c.018.072.007.127-.026.19l-.165.128c-.05.062-.099.276-.079.362-.169.058-.009.227-.015.35l-.045.161c-.01.119.017.266.068.37.097.198.268.413.435.544.19.148.365.572.608.631.177.042.384-.104.543-.143.18-.043.397.01.571-.053.222-.079.127-.337.288-.45.104-.074.287-.01.406-.051.2-.069.339-.263.376-.46l.039-.221c.039-.103.111-.16.09-.293l-.064-.187v-.337c-.003-.2.017-.379-.078-.55-.38-.688-1.236-.929-1.975-.789-.18.034-.287.126-.442.207-.17.088-.139.166-.318.224-.081.026-.216.124-.215.224l.012.169-.03-.025"/><path d="M23.477-25.736c.018.072.007.127-.026.19l-.165.128c-.05.062-.099.276-.079.362-.169.058-.009.227-.015.35l-.045.161c-.01.119.017.266.068.37.097.198.268.413.435.544.19.148.365.572.608.631.177.042.384-.104.543-.143.18-.043.397.01.571-.053.222-.079.127-.337.288-.45.104-.074.287-.01.406-.051.2-.069.339-.263.376-.46l.039-.221c.039-.103.111-.16.09-.293l-.064-.187v-.337c-.003-.2.017-.379-.078-.55-.38-.688-1.236-.929-1.975-.789-.18.034-.287.126-.442.207-.17.088-.139.166-.318.224-.081.026-.216.124-.215.224l.012.169-.03-.025"/><path d="M15.816-25.736c.018.072.007.127-.026.19l-.165.128c-.05.062-.099.276-.079.362-.169.058-.009.227-.015.35l-.045.161c-.01.119.017.266.068.37.097.198.268.413.435.544.19.148.365.572.608.631.177.042.384-.104.543-.143.18-.043.397.01.571-.053.222-.079.127-.337.288-.45.104-.074.287-.01.406-.051.2-.069.339-.263.376-.46l.039-.221c.039-.103.111-.16.09-.293l-.064-.187v-.337c-.003-.2.017-.379-.078-.55-.38-.688-1.236-.929-1.975-.789-.18.034-.287.126-.442.207-.17.088-.139.166-.318.224-.081.026-.216.124-.215.224l.012.169-.03-.025"/><path d="M8.156-25.736c.018.072.007.127-.026.19l-.165.128c-.05.062-.099.276-.079.362-.169.058-.009.227-.015.35l-.045.161c-.01.119.017.266.068.37.097.198.268.413.435.544.19.148.365.572.608.631.177.042.384-.104.543-.143.18-.043.397.01.571-.053.222-.079.127-.337.288-.45.104-.074.287-.01.406-.051.2-.069.339-.263.376-.46l.039-.221c.039-.103.111-.16.09-.293l-.064-.187v-.337c-.003-.2.017-.379-.078-.55-.38-.688-1.236-.929-1.975-.789-.18.034-.287.126-.442.207-.17.088-.139.166-.318.224-.081.026-.216.124-.215.224l.012.169-.03-.025"/><path d="M.495-25.736c.018.072.007.127-.026.19l-.165.128c-.05.062-.099.276-.079.362-.169.058-.01.227-.015.35l-.045.161c-.01.119.017.266.068.37.097.198.268.413.435.544.19.148.365.572.608.631.177.042.384-.104.543-.143.18-.043.397.01.571-.053.222-.079.127-.337.288-.45.104-.074.287-.01.406-.051.2-.069.339-.263.376-.46l.039-.221c.039-.103.111-.16.09-.293l-.064-.187v-.337c-.003-.2.017-.379-.078-.55-.38-.688-1.236-.929-1.975-.789-.18.034-.287.126-.442.207-.17.088-.139.166-.318.224-.081.026-.216.124-.215.224l.012.169-.03-.025"/><path d="M69.439-18.084c.018.072.007.127-.026.19l-.165.128c-.05.062-.099.276-.079.362-.169.058-.01.227-.015.35l-.045.161c-.01.119.017.266.068.37.097.198.268.413.435.544.19.148.365.572.608.631.177.042.384-.104.543-.143.18-.043.397.01.571-.053.222-.079.127-.337.288-.45.104-.074.287-.01.406-.051.2-.069.339-.263.376-.46l.039-.221c.039-.103.111-.16.09-.293l-.064-.187v-.337c-.003-.2.017-.379-.078-.55-.38-.688-1.236-.929-1.975-.789-.18.034-.287.126-.442.207-.17.088-.139.166-.318.224-.081.026-.216.124-.215.224l.012.169-.03-.025"/><path d="M61.778-18.084c.018.072.007.127-.026.19l-.165.128c-.05.062-.099.276-.079.362-.169.058-.009.227-.015.35l-.045.161c-.01.119.017.266.068.37.097.198.268.413.435.544.19.148.365.572.608.631.177.042.384-.104.543-.143.18-.043.397.01.571-.053.222-.079.127-.337.288-.45.104-.074.287-.01.406-.051.2-.069.339-.263.376-.46l.039-.221c.039-.103.111-.16.09-.293l-.064-.187v-.337c-.003-.2.017-.379-.078-.55-.38-.688-1.236-.929-1.975-.789-.18.034-.287.126-.442.207-.17.088-.139.166-.318.224-.081.026-.216.124-.215.224l.012.169-.03-.025"/><path d="M54.118-18.084c.018.072.007.127-.026.19l-.165.128c-.05.062-.099.276-.079.362-.169.058-.009.227-.015.35l-.045.161c-.01.119.017.266.068.37.097.198.268.413.435.544.19.148.365.572.608.631.177.042.384-.104.543-.143.18-.043.397.01.571-.053.222-.079.127-.337.288-.45.104-.074.287-.01.406-.051.2-.069.339-.263.376-.46l.039-.221c.039-.103.111-.16.09-.293l-.064-.187v-.337c-.003-.2.017-.379-.078-.55-.38-.688-1.236-.929-1.975-.789-.18.034-.287.126-.442.207-.17.088-.139.166-.318.224-.081.026-.216.124-.215.224l.012.169-.03-.025"/><path d="M46.458-18.084c.018.072.007.127-.026.19l-.165.128c-.05.062-.099.276-.079.362-.169.058-.009.227-.015.35l-.045.161c-.01.119.017.266.068.37.097.198.268.413.435.544.19.148.365.572.608.631.177.042.384-.104.543-.143.18-.043.397.01.571-.053.222-.079.127-.337.288-.45.104-.074.287-.01.406-.051.2-.069.339-.263.376-.46l.039-.221c.039-.103.111-.16.09-.293l-.064-.187v-.337c-.003-.2.017-.379-.078-.55-.38-.688-1.236-.929-1.975-.789-.18.034-.287.126-.442.207-.17.088-.139.166-.318.224-.081.026-.216.124-.215.224l.012.169-.03-.025"/><path d="M38.797-18.084c.018.072.007.127-.026.19l-.165.128c-.05.062-.099.276-.079.362-.169.058-.009.227-.015.35l-.045.161c-.01.119.017.266.068.37.097.198.268.413.435.544.19.148.365.572.608.631.177.042.384-.104.543-.143.18-.043.397.01.571-.053.222-.079.127-.337.288-.45.104-.074.287-.01.406-.051.2-.069.339-.263.376-.46l.039-.221c.039-.103.111-.16.09-.293l-.064-.187v-.337c-.003-.2.017-.379-.078-.55-.38-.688-1.236-.929-1.975-.789-.18.034-.287.126-.442.207-.17.088-.139.166-.318.224-.081.026-.216.124-.215.224l.012.169-.03-.025"/><path d="M31.137-18.084c.018.072.007.127-.026.19l-.165.128c-.05.062-.099.276-.079.362-.169.058-.009.227-.015.35l-.045.161c-.01.119.017.266.068.37.097.198.268.413.435.544.19.148.365.572.608.631.177.042.384-.104.543-.143.18-.043.397.01.571-.053.222-.079.127-.337.288-.45.104-.074.287-.01.406-.051.2-.069.339-.263.376-.46l.039-.221c.039-.103.111-.16.09-.293l-.064-.187v-.337c-.003-.2.017-.379-.078-.55-.38-.688-1.236-.929-1.975-.789-.18.034-.287.126-.442.207-.17.088-.139.166-.318.224-.081.026-.216.124-.215.224l.012.169-.03-.025"/><path d="M23.477-18.084c.018.072.007.127-.026.19l-.165.128c-.05.062-.099.276-.079.362-.169.058-.009.227-.015.35l-.045.161c-.01.119.017.266.068.37.097.198.268.413.435.544.19.148.365.572.608.631.177.042.384-.104.543-.143.18-.043.397.01.571-.053.222-.079.127-.337.288-.45.104-.074.287-.01.406-.051.2-.069.339-.263.376-.46l.039-.221c.039-.103.111-.16.09-.293l-.064-.187v-.337c-.003-.2.017-.379-.078-.55-.38-.688-1.236-.929-1.975-.789-.18.034-.287.126-.442.207-.17.088-.139.166-.318.224-.081.026-.216.124-.215.224l.012.169-.03-.025"/><path d="M15.816-18.084c.018.072.007.127-.026.19l-.165.128c-.05.062-.099.276-.079.362-.169.058-.009.227-.015.35l-.045.161c-.01.119.017.266.068.37.097.198.268.413.435.544.19.148.365.572.608.631.177.042.384-.104.543-.143.18-.043.397.01.571-.053.222-.079.127-.337.288-.45.104-.074.287-.01.406-.051.2-.069.339-.263.376-.46l.039-.221c.039-.103.111-.16.09-.293l-.064-.187v-.337c-.003-.2.017-.379-.078-.55-.38-.688-1.236-.929-1.975-.789-.18.034-.287.126-.442.207-.17.088-.139.166-.318.224-.081.026-.216.124-.215.224l.012.169-.03-.025"/><path d="M8.156-18.084c.018.072.007.127-.026.19l-.165.128c-.05.062-.099.276-.079.362-.169.058-.009.227-.015.35l-.045.161c-.01.119.017.266.068.37.097.198.268.413.435.544.19.148.365.572.608.631.177.042.384-.104.543-.143.18-.043.397.01.571-.053.222-.079.127-.337.288-.45.104-.074.287-.01.406-.051.2-.069.339-.263.376-.46l.039-.221c.039-.103.111-.16.09-.293l-.064-.187v-.337c-.003-.2.017-.379-.078-.55-.38-.688-1.236-.929-1.975-.789-.18.034-.287.126-.442.207-.17.088-.139.166-.318.224-.081.026-.216.124-.215.224l.012.169-.03-.025"/><path d="M.495-18.084c.018.072.007.127-.026.19l-.165.128c-.05.062-.099.276-.079.362-.169.058-.01.227-.015.35l-.045.161c-.01.119.017.266.068.37.097.198.268.413.435.544.19.148.365.572.608.631.177.042.384-.104.543-.143.18-.043.397.01.571-.053.222-.079.127-.337.288-.45.104-.074.287-.01.406-.051.2-.069.339-.263.376-.46l.039-.221c.039-.103.111-.16.09-.293l-.064-.187v-.337c-.003-.2.017-.379-.078-.55-.38-.688-1.236-.929-1.975-.789-.18.034-.287.126-.442.207-.17.088-.139.166-.318.224-.081.026-.216.124-.215.224l.013.17-.03-.025"/><path d="M69.439-10.431c.018.072.007.127-.026.19l-.165.128c-.05.062-.099.276-.079.362-.169.059-.01.228-.015.351l-.045.161c-.01.119.017.266.068.37.097.198.268.413.435.544.19.148.365.572.608.631.177.042.384-.104.543-.143.18-.043.397.01.571-.053.222-.079.127-.337.288-.45.104-.074.287-.01.406-.051.2-.069.339-.263.376-.46l.039-.221c.039-.103.111-.16.09-.293l-.064-.187v-.337c-.003-.2.017-.379-.078-.55-.38-.688-1.236-.929-1.975-.789-.18.034-.287.126-.442.207-.17.088-.139.166-.318.224-.081.026-.216.124-.215.224l.012.169-.03-.025"/><path d="M61.778-10.431c.018.072.007.127-.026.19l-.165.128c-.05.062-.099.276-.079.362-.169.058-.009.227-.015.35l-.045.161c-.01.119.017.266.068.37.097.198.268.413.435.544.19.148.365.572.608.631.177.042.384-.104.543-.143.18-.043.397.01.571-.053.222-.079.127-.337.288-.45.104-.074.287-.01.406-.051.2-.069.339-.263.376-.46l.039-.221c.039-.103.111-.16.09-.293l-.064-.187v-.337c-.003-.2.017-.379-.078-.55-.38-.688-1.236-.929-1.975-.789-.18.034-.287.126-.442.207-.17.088-.139.166-.318.224-.081.026-.216.124-.215.224l.012.169-.03-.025"/><path d="M54.118-10.431c.018.072.007.127-.026.19l-.165.128c-.05.062-.099.276-.079.362-.169.058-.009.227-.015.35l-.045.161c-.01.119.017.266.068.37.097.198.268.413.435.544.19.148.365.572.608.631.177.042.384-.104.543-.143.18-.043.397.01.571-.053.222-.079.127-.337.288-.45.104-.074.287-.01.406-.051.2-.069.339-.263.376-.46l.039-.221c.039-.103.111-.16.09-.293l-.064-.187v-.337c-.003-.2.017-.379-.078-.55-.38-.688-1.236-.929-1.975-.789-.18.034-.287.126-.442.207-.17.088-.139.166-.318.224-.081.026-.216.124-.215.224l.012.169-.03-.025"/><path d="M46.458-10.431c.018.072.007.127-.026.19l-.165.128c-.05.062-.099.276-.079.362-.169.058-.009.227-.015.35l-.045.161c-.01.119.017.266.068.37.097.198.268.413.435.544.19.148.365.572.608.631.177.042.384-.104.543-.143.18-.043.397.01.571-.053.222-.079.127-.337.288-.45.104-.074.287-.01.406-.051.2-.069.339-.263.376-.46l.039-.221c.039-.103.111-.16.09-.293l-.064-.187v-.337c-.003-.2.017-.379-.078-.55-.38-.688-1.236-.929-1.975-.789-.18.034-.287.126-.442.207-.17.088-.139.166-.318.224-.081.026-.216.124-.215.224l.012.169-.03-.025"/><path d="M38.797-10.431c.018.072.007.127-.026.19l-.165.128c-.05.062-.099.276-.079.362-.169.058-.009.227-.015.35l-.045.161c-.01.119.017.266.068.37.097.198.268.413.435.544.19.148.365.572.608.631.177.042.384-.104.543-.143.18-.043.397.01.571-.053.222-.079.127-.337.288-.45.104-.074.287-.01.406-.051.2-.069.339-.263.376-.46l.039-.221c.039-.103.111-.16.09-.293l-.064-.187v-.337c-.003-.2.017-.379-.078-.55-.38-.688-1.236-.929-1.975-.789-.18.034-.287.126-.442.207-.17.088-.139.166-.318.224-.081.026-.216.124-.215.224l.012.169-.03-.025"/><path d="M31.137-10.431c.018.072.007.127-.026.19l-.165.128c-.05.062-.099.276-.079.362-.169.058-.009.227-.015.35l-.045.161c-.01.119.017.266.068.37.097.198.268.413.435.544.19.148.365.572.608.631.177.042.384-.104.543-.143.18-.043.397.01.571-.053.222-.079.127-.337.288-.45.104-.074.287-.01.406-.051.2-.069.339-.263.376-.46l.039-.221c.039-.103.111-.16.09-.293l-.064-.187v-.337c-.003-.2.017-.379-.078-.55-.38-.688-1.236-.929-1.975-.789-.18.034-.287.126-.442.207-.17.088-.139.166-.318.224-.081.026-.216.124-.215.224l.012.169-.03-.025"/><path d="M23.477-10.431c.018.072.007.127-.026.19l-.165.128c-.05.062-.099.276-.079.362-.169.058-.009.227-.015.35l-.045.161c-.01.119.017.266.068.37.097.198.268.413.435.544.19.148.365.572.608.631.177.042.384-.104.543-.143.18-.043.397.01.571-.053.222-.079.127-.337.288-.45.104-.074.287-.01.406-.051.2-.069.339-.263.376-.46l.039-.221c.039-.103.111-.16.09-.293l-.064-.187v-.337c-.003-.2.017-.379-.078-.55-.38-.688-1.236-.929-1.975-.789-.18.034-.287.126-.442.207-.17.088-.139.166-.318.224-.081.026-.216.124-.215.224l.012.169-.03-.025"/><path d="M15.816-10.431c.018.072.007.127-.026.19l-.165.128c-.05.062-.099.276-.079.362-.169.058-.009.227-.015.35l-.045.161c-.01.119.017.266.068.37.097.198.268.413.435.544.19.148.365.572.608.631.177.042.384-.104.543-.143.18-.043.397.01.571-.053.222-.078.128-.336.289-.449.104-.074.287-.01.406-.051.2-.069.339-.263.376-.46l.039-.221c.039-.103.111-.16.09-.293l-.064-.187v-.337c-.003-.2.017-.379-.078-.55-.38-.688-1.236-.929-1.975-.789-.18.034-.287.126-.442.207-.17.088-.139.166-.318.224-.081.026-.216.124-.215.224l.012.169-.03-.025"/><path d="M8.156-10.431c.018.072.007.127-.026.19l-.165.128c-.05.063-.099.277-.079.363-.169.058-.01.227-.015.35l-.045.161c-.01.119.017.266.068.37.097.198.268.413.435.544.19.148.365.572.608.631.177.042.384-.105.543-.143.18-.043.397.01.571-.053.222-.079.127-.337.288-.45.104-.074.287-.01.406-.051.2-.069.339-.263.376-.46l.039-.221c.039-.103.111-.16.09-.293l-.064-.187v-.337c-.003-.2.017-.379-.078-.55-.38-.688-1.236-.929-1.975-.789-.18.034-.287.126-.442.207-.17.088-.139.166-.318.224-.081.026-.216.124-.215.224l.012.169-.03-.025"/><path d="M.495-10.431c.018.072.007.127-.026.19l-.165.128c-.05.063-.099.277-.079.363-.169.058-.01.227-.015.35l-.045.161c-.01.119.017.266.068.37.097.198.268.413.435.544.19.148.365.572.608.631.178.042.384-.105.543-.143.181-.043.398.01.572-.053.222-.079.127-.337.288-.45.104-.074.287-.01.406-.051.2-.069.339-.263.376-.46l.039-.22c.039-.103.111-.16.09-.293l-.064-.187v-.337c-.003-.2.017-.379-.078-.55-.38-.688-1.236-.929-1.975-.789-.18.034-.287.126-.442.207-.17.088-.139.166-.318.224-.081.026-.216.124-.215.224l.012.169-.03-.025"/></g><g fill="#fff"><path d="M69.439-2.778c.018.072.008.127-.026.19l-.165.128c-.051.062-.099.276-.079.362-.169.058-.01.227-.015.35l-.045.161c-.01.119.017.266.068.37.097.198.268.413.435.544.19.148.365.572.608.631.177.042.384-.104.543-.143.18-.043.397.01.571-.053.222-.079.127-.337.288-.45.104-.074.287-.01.406-.051.2-.07.339-.263.376-.46l.039-.221c.038-.103.111-.16.09-.293l-.064-.187v-.337c-.003-.2.017-.379-.078-.55-.38-.688-1.236-.929-1.975-.789-.18.034-.287.126-.442.207-.17.088-.139.166-.318.224-.081.026-.215.124-.215.224l.012.169-.03-.025"/><path d="M61.778-2.778c.018.072.007.127-.026.19l-.165.128c-.05.062-.099.276-.079.362-.169.058-.01.227-.015.35l-.045.161c-.01.119.017.266.068.37.097.198.268.413.435.544.19.148.365.572.608.631.178.042.384-.104.544-.143.18-.043.397.01.571-.053.222-.079.127-.337.288-.45.104-.074.287-.01.406-.051.2-.069.339-.263.376-.46l.039-.221c.039-.103.111-.16.09-.293l-.064-.187v-.337c-.003-.2.017-.379-.078-.55-.38-.688-1.236-.929-1.975-.789-.18.034-.287.126-.442.207-.17.088-.139.166-.318.224-.081.028-.216.125-.215.225l.012.169-.03-.025"/><path d="M54.118-2.778c.018.072.007.127-.026.19l-.165.128c-.05.062-.099.276-.079.362-.169.058-.01.227-.015.35l-.045.161c-.01.119.017.266.068.37.097.198.268.413.435.544.19.148.365.572.608.631.178.042.384-.104.543-.143.18-.043.397.01.571-.053.222-.079.127-.337.288-.45.104-.074.287-.01.406-.051.2-.069.339-.263.376-.46l.039-.221c.039-.103.111-.16.09-.293l-.064-.187v-.337c-.003-.2.017-.379-.078-.55-.38-.688-1.236-.929-1.975-.789-.18.034-.287.126-.442.207-.17.088-.139.166-.318.224-.08.028-.215.125-.214.225l.012.169-.03-.025"/><path d="M46.458-2.778c.018.072.007.127-.026.19l-.165.128c-.05.062-.099.276-.079.362-.169.058-.01.227-.015.35l-.045.161c-.01.119.017.266.068.37.097.198.268.413.435.544.19.148.365.572.608.631.177.042.384-.104.543-.143.18-.043.397.01.571-.053.222-.079.127-.337.288-.45.104-.074.287-.01.406-.051.2-.069.339-.263.376-.46l.039-.221c.039-.103.111-.16.09-.293l-.064-.187v-.337c-.003-.2.017-.379-.078-.55-.38-.688-1.236-.929-1.975-.789-.18.034-.287.126-.442.207-.17.088-.139.166-.318.224-.081.028-.216.125-.215.225l.012.169-.03-.025"/><path d="M38.797-2.778c.018.072.007.127-.026.19l-.165.128c-.05.062-.099.276-.079.362-.169.058-.01.227-.015.35l-.045.161c-.01.119.017.266.068.37.097.198.268.413.435.544.19.148.365.572.608.631.178.042.384-.104.544-.143.18-.043.397.01.571-.053.222-.079.127-.337.288-.45.104-.074.287-.01.406-.051.2-.069.339-.263.376-.46l.039-.221c.039-.103.111-.16.09-.293l-.064-.187v-.337c-.003-.2.017-.379-.078-.55-.38-.688-1.236-.929-1.975-.789-.18.034-.287.126-.442.207-.17.088-.139.166-.318.224-.081.028-.216.125-.215.225l.012.169-.03-.025"/><path d="M31.137-2.778c.018.072.007.127-.026.19l-.165.128c-.05.062-.099.276-.079.362-.169.058-.01.227-.015.35l-.045.161c-.01.119.017.266.068.37.097.198.268.413.435.544.19.148.365.572.608.631.177.042.384-.104.543-.143.18-.043.397.01.571-.053.222-.079.127-.337.288-.45.104-.074.287-.01.406-.051.2-.069.339-.263.376-.46l.039-.221c.039-.103.111-.16.09-.293l-.064-.187v-.337c-.003-.2.017-.379-.078-.55-.38-.688-1.236-.929-1.975-.789-.18.034-.287.126-.442.207-.17.088-.139.166-.318.224-.081.028-.215.125-.214.225l.012.169-.03-.025"/><path d="M23.477-2.778c.018.072.007.127-.026.19l-.165.128c-.05.062-.099.276-.079.362-.169.058-.01.227-.015.35l-.045.161c-.01.119.017.266.068.37.097.198.268.413.435.544.19.148.365.572.608.631.177.042.384-.104.543-.143.18-.043.397.01.571-.053.222-.079.127-.337.288-.45.104-.074.287-.01.406-.051.2-.069.339-.263.376-.46l.039-.221c.039-.103.111-.16.09-.293l-.064-.187v-.337c-.003-.2.017-.379-.078-.55-.38-.688-1.236-.929-1.975-.789-.18.034-.287.126-.442.207-.17.088-.139.166-.318.224-.081.026-.216.124-.215.224l.012.169-.03-.025"/><path d="M15.816-2.778c.018.072.007.127-.026.19l-.165.128c-.05.062-.099.276-.079.362-.169.058-.01.227-.015.35l-.045.161c-.01.119.017.266.068.37.097.198.268.413.435.544.19.148.365.572.608.631.177.042.384-.104.543-.143.18-.043.397.01.571-.053.222-.079.127-.337.288-.45.104-.074.287-.01.406-.051.2-.069.339-.263.376-.46l.039-.221c.039-.103.111-.16.09-.293l-.064-.187v-.337c-.003-.2.017-.379-.078-.55-.38-.688-1.236-.929-1.975-.789-.18.034-.287.126-.442.207-.17.088-.139.166-.318.224-.081.026-.216.124-.215.224l.012.169-.03-.024"/><path d="M8.156-2.778c.018.072.007.127-.026.19l-.165.128c-.05.062-.099.276-.079.362-.169.058-.01.227-.015.35l-.045.161c-.01.119.017.266.068.37.097.198.268.413.435.544.19.148.365.572.608.631.177.042.384-.104.543-.143.18-.043.397.01.571-.053.222-.079.127-.337.288-.45.104-.074.287-.01.406-.051.2-.069.339-.263.376-.46l.039-.221c.039-.103.111-.16.09-.293l-.064-.187v-.337c-.003-.2.017-.379-.078-.55-.38-.688-1.236-.929-1.975-.789-.179.036-.286.128-.441.209-.17.088-.139.166-.318.224-.082.026-.216.123-.215.223l.011.169-.03-.025"/><path d="M.495-2.778c.018.072.008.127-.026.19l-.165.128c-.051.063-.099.276-.079.362-.169.058-.01.227-.015.35l-.045.161c-.01.119.017.266.068.37.097.198.268.413.435.544.19.148.365.572.608.631.178.042.384-.104.543-.143.181-.043.398.01.572-.052.222-.079.127-.337.288-.45.104-.074.287-.01.406-.051.2-.07.339-.263.376-.46l.039-.221c.038-.103.111-.16.09-.293l-.064-.187v-.337c-.003-.2.017-.379-.078-.55-.38-.688-1.236-.929-1.975-.789-.18.035-.286.127-.442.208-.17.088-.139.166-.318.224-.081.026-.215.123-.215.223l.012.169-.031-.025"/></g></pattern><radialGradient gradientUnits="userSpaceOnUse" r="34.525" cy="35.519" cx="36.113" id="a"><stop stop-color="#FBC90D" offset="0"/><stop stop-color="#FDB913" offset="1"/></radialGradient><path d="M70.263 20.852c-2.07 1.252-3.79 1.197-5.153-.17-.436-.432-.905-1.031-1.418-1.803-.616-.924-1.138-1.602-1.576-2.037-.779-.781-1.771-1.229-2.974-1.334s-2.45.135-3.739.721c.545-1.162.803-2.344.765-3.551-.04-1.213-.479-2.24-1.333-3.094-.466-.467-1.148-1.006-2.058-1.615-.769-.512-1.367-.986-1.812-1.432-.588-.588-.927-1.338-1.024-2.256-.089-.914.217-1.857.927-2.824l-.419-.43-.077.117.025-.144h-.543c-.576 2.357-1.832 3.529-3.763 3.529-.61 0-1.367-.09-2.28-.268-1.08-.225-1.932-.332-2.55-.332-1.104 0-2.12.385-3.045 1.158-.922.779-1.64 1.828-2.136 3.154-.434-1.205-1.092-2.227-1.976-3.053-.879-.832-1.922-1.244-3.125-1.244-.659 0-1.526.105-2.599.316-.903.176-1.667.268-2.292.268-.831 0-1.604-.295-2.318-.871-.714-.586-1.161-1.473-1.346-2.654l-.596-.003.029.145-.075-.117-.382.384c1.253 2.066 1.196 3.789-.169 5.158-.428.426-1.031.903-1.801 1.418-.926.611-1.6 1.133-2.041 1.568-.777.781-1.221 1.775-1.331 2.977-.108 1.201.135 2.453.72 3.74-1.156-.545-2.345-.801-3.551-.766-1.211.037-2.24.48-3.096 1.332-.471.467-1.008 1.152-1.613 2.059-.513.766-.99 1.369-1.43 1.812-.586.592-1.339.926-2.259 1.021-.915.092-1.855-.217-2.825-.93l-.423.43.059.039v.461c2.349.576 3.525 1.832 3.525 3.77 0 .605-.092 1.365-.269 2.277-.222 1.08-.33 1.93-.33 2.553-.003 1.102.384 2.117 1.161 3.043.774.928 1.822 1.637 3.149 2.133-1.203.439-2.222 1.096-3.049 1.973-.833.883-1.248 1.928-1.245 3.129-.003.662.105 1.523.313 2.598.177.9.269 1.67.269 2.293 0 .828-.293 1.602-.871 2.316-.587.715-1.466 1.164-2.653 1.344v.602l.082-.021-.141.096.377.383c2.072-1.254 3.792-1.199 5.158.17.431.428.903 1.029 1.42 1.803.612.918 1.136 1.6 1.574 2.035.778.779 1.773 1.229 2.972 1.332 1.205.111 2.449-.133 3.739-.719-.544 1.158-.798 2.346-.764 3.557.037 1.209.477 2.24 1.329 3.09.473.467 1.157 1.004 2.062 1.613.762.51 1.367.986 1.811 1.432.587.584.93 1.34 1.023 2.254.09.92-.216 1.859-.93 2.826l.429.426.116-.174h.381c.576-2.35 1.833-3.525 3.766-3.525.608 0 1.369.086 2.279.27 1.084.221 1.935.326 2.554.326 1.104 0 2.112-.383 3.04-1.158.93-.773 1.641-1.824 2.136-3.15.436 1.205 1.099 2.221 1.979 3.047.883.834 1.924 1.248 3.128 1.248.655 0 1.521-.102 2.597-.316.898-.176 1.662-.266 2.294-.266.828 0 1.6.293 2.313.871.714.586 1.162 1.469 1.347 2.654h.522l.036.059.379-.385c-1.251-2.068-1.196-3.789.175-5.152.427-.434 1.026-.904 1.802-1.422.921-.611 1.598-1.131 2.035-1.57.779-.781 1.226-1.773 1.329-2.975.108-1.203-.127-2.445-.717-3.738 1.161.545 2.349.797 3.555.766 1.211-.039 2.239-.484 3.095-1.334.463-.465 1.006-1.152 1.609-2.057.511-.766.992-1.371 1.433-1.818.586-.584 1.339-.926 2.25-1.02.923-.092 1.865.221 2.834.928l.408-.41.134.027v-.541c-2.354-.578-3.527-1.832-3.527-3.766 0-.609.089-1.365.265-2.281.221-1.078.336-1.932.336-2.551 0-1.1-.392-2.121-1.164-3.043-.772-.924-1.825-1.635-3.154-2.135 1.205-.436 2.223-1.096 3.053-1.975.831-.879 1.247-1.924 1.247-3.129 0-.656-.104-1.525-.317-2.598-.176-.898-.265-1.668-.265-2.293 0-.832.286-1.602.872-2.316.582-.715 1.466-1.156 2.655-1.344v-.523l.056-.037-.384-.381z" fill="url(#a)"/><path d="M42.815 55.953c-.586.581-1.717.877-2.513.66l-18.544-5.066c-.795-.218-1.618-1.048-1.827-1.847l-4.869-18.588c-.209-.798.1-1.926.686-2.507l13.653-13.52c.586-.581 1.717-.878 2.513-.661l18.55 5.063c.796.217 1.618 1.048 1.828 1.846l4.871 18.59c.209.798-.1 1.926-.686 2.506l-13.662 13.524zm-6.702-34.861c-7.971 0-14.426 6.459-14.426 14.424s6.455 14.42 14.426 14.43c7.965-.008 14.424-6.465 14.426-14.43-.005-7.965-6.461-14.424-14.426-14.424z" fill="#fff"/><path d="M93.546 19.191h-4.289c-1.184 0-2.169.937-2.169 2.119v5.029h3.599c1.43 0 2.12 1.035 2.12 2.119 0 1.086-.69 2.17-2.12 2.17h-3.599v14.987c0 1.43-1.035 2.169-2.12 2.169-1.084 0-2.169-.739-2.169-2.169v-14.986h-.69c-1.43 0-2.12-1.084-2.12-2.17 0-1.084.69-2.119 2.12-2.119h.69v-5.029c0-3.549 2.909-6.408 6.458-6.408h4.289c1.43 0 2.12 1.035 2.12 2.119 0 1.084-.69 2.169-2.12 2.169zm14.299 13.558c-1.035 0-2.12-.69-2.12-2.12h-2.169c-1.183 0-2.12.937-2.12 2.12v12.867c0 1.43-1.084 2.169-2.169 2.169-1.036 0-2.12-.739-2.12-2.119v-12.868c0-3.599 2.859-6.458 6.409-6.458h4.289c1.184 0 2.169.986 2.169 2.119v2.17c0 1.43-1.084 2.12-2.169 2.12zm17.798 15.036h-5.719c-3.55 0-6.458-2.908-6.458-6.458v-8.578c0-3.55 2.909-6.409 6.458-6.409h5.719c3.55 0 6.409 2.859 6.409 6.409v8.578c0 3.55-2.859 6.458-6.409 6.458zm2.12-15.036c0-1.184-.937-2.12-2.12-2.12h-5.719c-1.183 0-2.169.937-2.169 2.12v8.578c0 1.183.986 2.169 2.169 2.169h5.719c1.184 0 2.12-.986 2.12-2.169v-8.578zm26.675 15.036c-1.086 0-2.17-.739-2.17-2.169v-12.867c0-1.184-.937-2.12-2.12-2.12h-5.719c-1.183 0-2.169.937-2.169 2.12v12.867c0 1.43-1.035 2.169-2.12 2.169s-2.169-.739-2.169-2.169v-12.867c0-3.55 2.908-6.409 6.458-6.409h5.719c3.55 0 6.409 2.859 6.409 6.409v12.867c0 1.43-1.036 2.169-2.119 2.169zm19.179 0h-2.859c-3.551 0-6.459-2.908-6.459-6.458v-10.698h-.69c-1.43 0-2.12-1.084-2.12-2.17 0-1.084.69-2.119 2.12-2.119h.69v-6.459c0-1.43 1.084-2.119 2.17-2.119 1.084 0 2.119.689 2.119 2.119v6.459h3.6c1.43 0 2.119 1.035 2.119 2.119 0 1.086-.689 2.17-2.119 2.17h-3.6v10.698c0 1.183.986 2.169 2.17 2.169h2.859c1.43 0 2.119 1.035 2.119 2.12s-.689 2.169-2.119 2.169zm22.531 0h-10.058c-3.55 0-6.409-2.908-6.409-6.458v-8.578c0-3.55 2.859-6.409 6.409-6.409h5.719c3.55 0 6.458 2.908 6.458 6.458v.69c0 3.55-2.908 6.459-6.458 6.459h-7.839v1.38c0 1.183.938 2.169 2.12 2.169h10.058c1.43 0 2.119 1.085 2.119 2.17.001 1.084-.689 2.119-2.119 2.119zm-2.169-14.987c0-1.183-.985-2.169-2.169-2.169h-5.719c-1.183 0-2.12.937-2.12 2.12v2.909h7.839c1.184 0 2.169-.986 2.169-2.17v-.69zm26.673 14.987h-10.057c-3.551 0-6.41-2.908-6.41-6.458v-8.578c0-3.55 2.859-6.409 6.41-6.409h5.719c3.549 0 6.458 2.908 6.458 6.458v.69c0 3.55-2.909 6.459-6.458 6.459h-7.84v1.38c0 1.183.938 2.169 2.121 2.169h10.057c1.43 0 2.12 1.085 2.12 2.17 0 1.084-.69 2.119-2.12 2.119zm-2.169-14.987c0-1.183-.985-2.169-2.169-2.169h-5.719c-1.184 0-2.121.937-2.121 2.12v2.909h7.84c1.184 0 2.169-.986 2.169-2.17v-.69zm20.906-.049c-1.035 0-2.119-.69-2.119-2.12h-2.17c-1.184 0-2.12.937-2.12 2.12v12.867c0 1.43-1.085 2.169-2.169 2.169-1.035 0-2.12-.739-2.12-2.119v-12.868c0-3.599 2.859-6.458 6.409-6.458h4.289c1.184 0 2.17.986 2.17 2.119v2.17c0 1.43-1.085 2.12-2.17 2.12zm14.396 15.036h-7.148c-1.43 0-2.12-1.084-2.12-2.169s.69-2.12 2.12-2.12h7.148c1.184 0 2.17-.986 2.17-2.169s-.986-2.12-2.17-2.12h-2.613c-3.549 0-6.408-2.908-6.408-6.458s2.859-6.409 6.408-6.409h6.656c1.43 0 2.17 1.035 2.17 2.119 0 1.086-.74 2.17-2.17 2.17h-6.656c-1.183 0-2.119.937-2.119 2.12s.937 2.169 2.119 2.169h2.613c3.55 0 6.459 2.859 6.459 6.409s-2.909 6.458-6.459 6.458z"/><path d="M86.869 53.805l-.467 2.771c-.106.627-.552 1.307-1.38 1.307h-.308c-.828 0-1.264-.68-1.37-1.307l-.467-2.771-.01-.096c0-.287.244-.446.478-.446.202 0 .404.117.446.383l.457 2.771c.064.383.276.542.467.542h.308c.191 0 .414-.159.478-.542l.457-2.771c.042-.266.244-.383.446-.383.234 0 .478.159.478.446l-.013.096zm3.805 4.078h-1.232c-.765 0-1.391-.627-1.391-1.392v-.148c0-.765.626-1.392 1.391-1.392h1.688v-.308c0-.255-.202-.456-.457-.456h-2.007c-.308 0-.457-.234-.457-.468s.149-.457.457-.457h2.007c.765 0 1.381.616 1.381 1.381v1.848c.001.765-.615 1.392-1.38 1.392zm.457-2.007h-1.688c-.255 0-.467.212-.467.467v.148c0 .255.212.468.467.468h1.232c.255 0 .457-.213.457-.468v-.615h-.001zm5.441 2.007c-.106 0-.223-.032-.319-.127l-1.997-1.849v1.509c0 .308-.223.467-.457.467s-.467-.159-.467-.467v-6.16c0-.308.233-.457.467-.457s.457.149.457.457v3.675l1.699-1.551c.096-.096.202-.128.308-.128.255 0 .467.234.467.479 0 .117-.042.233-.159.34l-1.477 1.349 1.795 1.667c.106.106.149.213.149.33.002.243-.211.466-.466.466zm5.217-4.078l-.467 2.771c-.106.627-.552 1.307-1.38 1.307h-.308c-.829 0-1.264-.68-1.37-1.307l-.467-2.771-.011-.096c0-.287.245-.446.478-.446.202 0 .404.117.446.383l.457 2.771c.063.383.276.542.467.542h.308c.191 0 .414-.159.478-.542l.457-2.771c.042-.266.244-.383.446-.383.234 0 .478.159.478.446l-.012.096zm4.73 4.078h-2.166c-.765 0-1.381-.627-1.381-1.392v-1.848c0-.765.616-1.381 1.381-1.381h1.231c.765 0 1.392.627 1.392 1.392v.148c0 .765-.627 1.392-1.392 1.392h-1.688v.297c0 .255.202.468.457.468h2.166c.308 0 .457.233.457.467s-.149.457-.457.457zm-.467-3.229c0-.255-.213-.467-.468-.467h-1.231c-.255 0-.457.201-.457.456v.627h1.688c.255 0 .468-.213.468-.468v-.148zm4.506-.01c-.223 0-.457-.148-.457-.456h-.468c-.255 0-.457.201-.457.456v2.772c0 .308-.233.467-.467.467-.223 0-.457-.159-.457-.457v-2.771c0-.775.616-1.392 1.38-1.392h.924c.255 0 .467.213.467.457v.468c.002.307-.231.456-.465.456zm4.76 3.239h-2.167c-.765 0-1.38-.627-1.38-1.392v-1.848c0-.765.616-1.381 1.38-1.381h1.232c.765 0 1.391.627 1.391 1.392v.148c0 .765-.626 1.392-1.391 1.392h-1.689v.297c0 .255.202.468.457.468h2.167c.308 0 .457.233.457.467s-.149.457-.457.457zm-.467-3.229c0-.255-.212-.467-.467-.467h-1.232c-.255 0-.457.201-.457.456v.627h1.689c.255 0 .467-.213.467-.468v-.148zm5.749 3.229c-.233 0-.467-.159-.467-.467v-2.772c0-.255-.202-.456-.457-.456h-1.232c-.255 0-.467.201-.467.456v2.772c0 .308-.223.467-.457.467s-.467-.159-.467-.467v-2.772c0-.765.626-1.381 1.391-1.381h1.232c.765 0 1.381.616 1.381 1.381v2.772c0 .308-.224.467-.457.467zm3.774 0h-1.848c-.308 0-.457-.233-.457-.467s.149-.457.457-.457h.457v-3.239c0-.308.233-.457.467-.457.233 0 .457.149.457.457v3.239h.467c.308 0 .457.223.457.457-.001.233-.149.467-.457.467zm-.924-5.703c-.234 0-.467-.148-.467-.457v-.467c0-.308.233-.457.467-.457.233 0 .457.149.457.457v.467c-.001.308-.224.457-.457.457zm5.004 7.859h-1.997c-.308 0-.467-.224-.467-.457s.159-.467.467-.467h1.997c.255 0 .467-.202.467-.457v-.775h-1.699c-.765 0-1.38-.627-1.38-1.392v-1.848c0-.765.616-1.381 1.38-1.381h2.156c.244 0 .467.213.467.457v4.938c0 .766-.626 1.382-1.391 1.382zm.467-5.851h-1.699c-.255 0-.457.201-.457.456v1.848c0 .255.202.468.457.468h1.699v-2.772zm4.241 3.695h-1.848c-.308 0-.457-.233-.457-.467s.149-.457.457-.457h.457v-3.239c0-.308.233-.457.467-.457.233 0 .457.149.457.457v3.239h.467c.308 0 .457.223.457.457 0 .233-.149.467-.457.467zm-.924-5.703c-.234 0-.467-.148-.467-.457v-.467c0-.308.233-.457.467-.457.233 0 .457.149.457.457v.467c0 .308-.223.457-.457.457zm5.939 5.703c-.233 0-.467-.159-.467-.467v-2.772c0-.255-.202-.456-.457-.456h-1.232c-.255 0-.467.201-.467.456v2.772c0 .308-.223.467-.457.467s-.467-.159-.467-.467v-2.772c0-.765.626-1.381 1.391-1.381h1.232c.765 0 1.381.616 1.381 1.381v2.772c0 .308-.224.467-.457.467zm4.347 2.156h-1.997c-.308 0-.467-.224-.467-.457s.159-.467.467-.467h1.997c.255 0 .467-.202.467-.457v-.775h-1.699c-.765 0-1.38-.627-1.38-1.392v-1.848c0-.765.615-1.381 1.38-1.381h2.156c.244 0 .467.213.467.457v4.938c0 .766-.626 1.382-1.391 1.382zm.467-5.851h-1.699c-.255 0-.456.201-.456.456v1.848c0 .255.201.468.456.468h1.699v-2.772zm9.288-.383l-.468 2.771c-.106.627-.552 1.307-1.381 1.307h-.308c-.828 0-1.264-.68-1.37-1.307l-.467-2.771-.011-.096c0-.287.244-.446.478-.446.202 0 .403.117.446.383l.457 2.771c.063.383.275.542.467.542h.308c.191 0 .415-.159.479-.542l.456-2.771c.043-.266.244-.383.446-.383.233 0 .478.159.478.446l-.01.096zm3.806 4.078h-1.232c-.765 0-1.392-.627-1.392-1.392v-1.848c0-.765.627-1.381 1.392-1.381h1.232c.765 0 1.38.616 1.38 1.381v1.848c0 .765-.615 1.392-1.38 1.392zm.456-3.239c0-.255-.201-.456-.456-.456h-1.232c-.255 0-.467.201-.467.456v1.848c0 .255.212.468.467.468h1.232c.255 0 .456-.213.456-.468v-1.848zm4.825 3.239h-1.232c-.765 0-1.392-.627-1.392-1.392v-1.848c0-.765.627-1.381 1.392-1.381h1.232c.765 0 1.38.616 1.38 1.381v1.848c0 .765-.615 1.392-1.38 1.392zm.456-3.239c0-.255-.201-.456-.456-.456h-1.232c-.255 0-.467.201-.467.456v1.848c0 .255.212.468.467.468h1.232c.255 0 .456-.213.456-.468v-1.848zm4.507 0c-.223 0-.456-.148-.456-.456h-.468c-.255 0-.456.201-.456.456v2.772c0 .308-.234.467-.468.467-.223 0-.456-.159-.456-.457v-2.771c0-.775.615-1.392 1.38-1.392h.924c.255 0 .468.213.468.457v.468c0 .307-.234.456-.468.456zm6.898-2.921h-.924c-.255 0-.467.202-.467.457v1.083h.774c.309 0 .457.224.457.457s-.148.468-.457.468h-.774v3.229c0 .308-.224.467-.457.467s-.468-.159-.468-.467v-3.229h-.148c-.308 0-.456-.234-.456-.468s.148-.457.456-.457h.148v-1.083c0-.765.627-1.381 1.392-1.381h.924c.309 0 .457.224.457.457s-.149.467-.457.467zm3.081 2.921c-.223 0-.456-.148-.456-.456h-.468c-.255 0-.456.201-.456.456v2.772c0 .308-.234.467-.468.467-.223 0-.456-.159-.456-.457v-2.771c0-.775.615-1.392 1.38-1.392h.924c.255 0 .468.213.468.457v.468c-.001.307-.234.456-.468.456zm3.837 3.239h-1.232c-.765 0-1.391-.627-1.391-1.392v-1.848c0-.765.626-1.381 1.391-1.381h1.232c.765 0 1.38.616 1.38 1.381v1.848c-.001.765-.616 1.392-1.38 1.392zm.456-3.239c0-.255-.201-.456-.456-.456h-1.232c-.255 0-.467.201-.467.456v1.848c0 .255.212.468.467.468h1.232c.255 0 .456-.213.456-.468v-1.848zm5.75 3.239c-.233 0-.468-.159-.468-.467v-2.772c0-.255-.201-.456-.456-.456h-1.232c-.255 0-.467.201-.467.456v2.772c0 .308-.224.467-.457.467s-.468-.159-.468-.467v-2.772c0-.765.627-1.381 1.392-1.381h1.232c.765 0 1.38.616 1.38 1.381v2.772c0 .308-.223.467-.456.467zm4.133 0h-.615c-.766 0-1.392-.627-1.392-1.392v-2.304h-.148c-.309 0-.457-.234-.457-.468s.148-.457.457-.457h.148v-1.391c0-.309.233-.457.467-.457s.457.148.457.457v1.391h.775c.308 0 .456.224.456.457s-.148.468-.456.468h-.775v2.304c0 .255.212.468.468.468h.615c.309 0 .457.223.457.457 0 .233-.148.467-.457.467zm2.977-1.848h-1.848c-.309 0-.457-.234-.457-.468s.148-.456.457-.456h1.848c.308 0 .457.223.457.456s-.149.468-.457.468zm4.643 1.848h-2.167c-.765 0-1.381-.627-1.381-1.392v-1.848c0-.765.616-1.381 1.381-1.381h1.232c.765 0 1.391.627 1.391 1.392v.148c0 .765-.626 1.392-1.391 1.392h-1.688v.297c0 .255.201.468.456.468h2.167c.308 0 .456.233.456.467.001.234-.148.457-.456.457zm-.467-3.229c0-.255-.212-.467-.467-.467h-1.232c-.255 0-.456.201-.456.456v.627h1.688c.255 0 .467-.213.467-.468v-.148zm5.749 3.229c-.233 0-.468-.159-.468-.467v-2.772c0-.255-.201-.456-.456-.456h-1.232c-.255 0-.467.201-.467.456v2.772c0 .308-.224.467-.457.467s-.468-.159-.468-.467v-2.772c0-.765.627-1.381 1.392-1.381h1.232c.765 0 1.38.616 1.38 1.381v2.772c0 .308-.223.467-.456.467zm4.358 0h-1.232c-.775 0-1.391-.616-1.391-1.381v-1.848c0-.775.615-1.392 1.38-1.392h1.699v-1.996c0-.308.233-.468.457-.468.233 0 .467.16.467.457v5.235c0 .777-.615 1.393-1.38 1.393zm.456-3.695h-1.688c-.266 0-.467.201-.467.456v1.848c0 .266.201.468.456.468h1.232c.266 0 .467-.202.467-.457v-2.315zm8.014 3.695h-1.232c-.775 0-1.392-.616-1.392-1.381v-1.848c0-.775.616-1.392 1.381-1.392h1.699v-1.996c0-.308.234-.468.457-.468.233 0 .467.16.467.457v5.235c0 .777-.615 1.393-1.38 1.393zm.456-3.695h-1.688c-.266 0-.467.201-.467.456v1.848c0 .266.201.468.456.468h1.232c.266 0 .467-.202.467-.457v-2.315zm5.749 3.695h-2.167c-.765 0-1.381-.627-1.381-1.392v-1.848c0-.765.616-1.381 1.381-1.381h1.232c.765 0 1.391.627 1.391 1.392v.148c0 .765-.626 1.392-1.391 1.392h-1.688v.297c0 .255.201.468.456.468h2.167c.308 0 .456.233.456.467s-.148.457-.456.457zm-.468-3.229c0-.255-.212-.467-.467-.467h-1.232c-.255 0-.456.201-.456.456v.627h1.688c.255 0 .467-.213.467-.468v-.148zm6.101-.849l-.468 2.771c-.106.627-.552 1.307-1.381 1.307h-.308c-.828 0-1.264-.68-1.37-1.307l-.467-2.771-.011-.096c0-.287.244-.446.478-.446.202 0 .403.117.446.383l.456 2.771c.064.383.276.542.468.542h.308c.191 0 .414-.159.479-.542l.456-2.771c.043-.266.245-.383.446-.383.233 0 .479.159.479.446l-.011.096zm4.728 4.078h-2.167c-.765 0-1.381-.627-1.381-1.392v-1.848c0-.765.616-1.381 1.381-1.381h1.232c.765 0 1.391.627 1.391 1.392v.148c0 .765-.626 1.392-1.391 1.392h-1.688v.297c0 .255.201.468.456.468h2.167c.308 0 .456.233.456.467s-.148.457-.456.457zm-.468-3.229c0-.255-.212-.467-.467-.467h-1.232c-.255 0-.456.201-.456.456v.627h1.688c.255 0 .467-.213.467-.468v-.148zm3.903 3.229h-.309c-.765 0-1.391-.627-1.391-1.392v-5.235c0-.308.233-.457.467-.457s.457.149.457.457v5.235c0 .255.212.468.467.468h.309c.308 0 .456.223.456.457 0 .233-.149.467-.456.467zm3.719 0h-1.232c-.765 0-1.391-.627-1.391-1.392v-1.848c0-.765.626-1.381 1.391-1.381h1.232c.765 0 1.38.616 1.38 1.381v1.848c-.001.765-.616 1.392-1.38 1.392zm.456-3.239c0-.255-.201-.456-.456-.456h-1.232c-.255 0-.467.201-.467.456v1.848c0 .255.212.468.467.468h1.232c.255 0 .456-.213.456-.468v-1.848zm4.825 3.239h-1.699v1.699c0 .308-.234.457-.457.457-.233 0-.467-.149-.467-.457v-4.928c0-.775.615-1.392 1.38-1.392h1.232c.775 0 1.391.616 1.391 1.381v1.848c0 .776-.616 1.392-1.38 1.392zm.456-3.229c0-.266-.201-.467-.456-.467h-1.232c-.266 0-.467.201-.467.456v2.315h1.688c.266 0 .467-.202.467-.457v-1.847zm5.75 3.229h-2.167c-.765 0-1.381-.627-1.381-1.392v-1.848c0-.765.616-1.381 1.381-1.381h1.232c.765 0 1.391.627 1.391 1.392v.148c0 .765-.626 1.392-1.391 1.392h-1.688v.297c0 .255.201.468.456.468h2.167c.308 0 .456.233.456.467s-.148.457-.456.457zm-.468-3.229c0-.255-.212-.467-.467-.467h-1.232c-.255 0-.456.201-.456.456v.627h1.688c.255 0 .467-.213.467-.468v-.148zm4.506-.01c-.223 0-.456-.148-.456-.456h-.468c-.255 0-.456.201-.456.456v2.772c0 .308-.234.467-.468.467-.223 0-.457-.159-.457-.457v-2.771c0-.775.616-1.392 1.381-1.392h.924c.255 0 .468.213.468.457v.468c0 .307-.234.456-.468.456zm3.103 3.239h-1.54c-.308 0-.456-.233-.456-.467s.148-.457.456-.457h1.54c.255 0 .468-.213.468-.468s-.213-.456-.468-.456h-.562c-.765 0-1.381-.627-1.381-1.392s.616-1.381 1.381-1.381h1.434c.308 0 .467.224.467.457s-.159.468-.467.468h-1.434c-.255 0-.457.201-.457.456s.202.468.457.468h.562c.765 0 1.392.615 1.392 1.38s-.627 1.392-1.392 1.392z" fill="#939598"/></svg>